<svg width="1200" height="89" viewBox="0 0 1200 89" fill="none" xmlns="http://www.w3.org/2000/svg">
<path d="M8.128 20.6H0.768V14.2H22.528V20.6H15.168V59H8.128V20.6ZM25.9365 14.2H32.9765V32.44H40.5285V14.2H47.5685V59H40.5285V38.84H32.9765V59H25.9365V14.2ZM58.2515 14.2H67.7875L75.0835 59H68.0435L66.7635 50.104V50.232H58.7635L57.4835 59H50.9555L58.2515 14.2ZM65.9315 44.152L62.7955 22.008H62.6675L59.5955 44.152H65.9315ZM78.499 14.2H87.331L94.179 41.016H94.307V14.2H100.579V59H93.347L84.899 26.296H84.771V59H78.499V14.2ZM105.812 14.2H112.852V33.08L121.812 14.2H128.852L120.468 30.648L128.98 59H121.62L115.668 39.032L112.852 44.728V59H105.812V14.2ZM149.026 39.928L140.514 14.2H148.002L152.802 30.648H152.93L157.73 14.2H164.578L156.066 39.928V59H149.026V39.928ZM176.8 59.64C173.344 59.64 170.699 58.6587 168.864 56.696C167.029 54.7333 166.112 51.96 166.112 48.376V24.824C166.112 21.24 167.029 18.4667 168.864 16.504C170.699 14.5413 173.344 13.56 176.8 13.56C180.256 13.56 182.901 14.5413 184.736 16.504C186.571 18.4667 187.488 21.24 187.488 24.824V48.376C187.488 51.96 186.571 54.7333 184.736 56.696C182.901 58.6587 180.256 59.64 176.8 59.64ZM176.8 53.24C179.232 53.24 180.448 51.768 180.448 48.824V24.376C180.448 21.432 179.232 19.96 176.8 19.96C174.368 19.96 173.152 21.432 173.152 24.376V48.824C173.152 51.768 174.368 53.24 176.8 53.24ZM202.489 59.64C199.076 59.64 196.473 58.68 194.681 56.76C192.889 54.7973 191.993 52.0027 191.993 48.376V14.2H199.033V48.888C199.033 50.424 199.332 51.5333 199.929 52.216C200.569 52.8987 201.465 53.24 202.617 53.24C203.769 53.24 204.644 52.8987 205.241 52.216C205.881 51.5333 206.201 50.424 206.201 48.888V14.2H212.985V48.376C212.985 52.0027 212.089 54.7973 210.297 56.76C208.505 58.68 205.902 59.64 202.489 59.64ZM228.249 14.2H246.873V20.6H235.289V33.08H244.377V39.48H235.289V59H228.249V14.2ZM260.425 59.64C256.969 59.64 254.324 58.6587 252.489 56.696C250.654 54.7333 249.737 51.96 249.737 48.376V24.824C249.737 21.24 250.654 18.4667 252.489 16.504C254.324 14.5413 256.969 13.56 260.425 13.56C263.881 13.56 266.526 14.5413 268.361 16.504C270.196 18.4667 271.113 21.24 271.113 24.824V48.376C271.113 51.96 270.196 54.7333 268.361 56.696C266.526 58.6587 263.881 59.64 260.425 59.64ZM260.425 53.24C262.857 53.24 264.073 51.768 264.073 48.824V24.376C264.073 21.432 262.857 19.96 260.425 19.96C257.993 19.96 256.777 21.432 256.777 24.376V48.824C256.777 51.768 257.993 53.24 260.425 53.24ZM275.874 14.2H286.306C289.933 14.2 292.578 15.0533 294.242 16.76C295.906 18.424 296.738 21.0053 296.738 24.504V27.256C296.738 31.9067 295.202 34.8507 292.13 36.088V36.216C293.837 36.728 295.031 37.7733 295.714 39.352C296.439 40.9307 296.802 43.0427 296.802 45.688V53.56C296.802 54.84 296.845 55.8853 296.93 56.696C297.015 57.464 297.229 58.232 297.57 59H290.402C290.146 58.2747 289.975 57.592 289.89 56.952C289.805 56.312 289.762 55.16 289.762 53.496V45.304C289.762 43.256 289.421 41.8267 288.738 41.016C288.098 40.2053 286.967 39.8 285.346 39.8H282.914V59H275.874V14.2ZM285.474 33.4C286.882 33.4 287.927 33.0373 288.61 32.312C289.335 31.5867 289.698 30.3707 289.698 28.664V25.208C289.698 23.5867 289.399 22.4133 288.802 21.688C288.247 20.9627 287.351 20.6 286.114 20.6H282.914V33.4H285.474ZM321.857 59.64C318.486 59.64 315.905 58.68 314.113 56.76C312.363 54.84 311.489 52.1307 311.489 48.632V24.568C311.489 21.0693 312.363 18.36 314.113 16.44C315.905 14.52 318.486 13.56 321.857 13.56C325.227 13.56 327.787 14.52 329.537 16.44C331.329 18.36 332.225 21.0693 332.225 24.568V29.304H325.569V24.12C325.569 21.3467 324.395 19.96 322.049 19.96C319.702 19.96 318.529 21.3467 318.529 24.12V49.144C318.529 51.8747 319.702 53.24 322.049 53.24C324.395 53.24 325.569 51.8747 325.569 49.144V42.296H332.225V48.632C332.225 52.1307 331.329 54.84 329.537 56.76C327.787 58.68 325.227 59.64 321.857 59.64ZM346.738 59.64C343.282 59.64 340.636 58.6587 338.802 56.696C336.967 54.7333 336.049 51.96 336.049 48.376V24.824C336.049 21.24 336.967 18.4667 338.802 16.504C340.636 14.5413 343.282 13.56 346.738 13.56C350.194 13.56 352.839 14.5413 354.674 16.504C356.508 18.4667 357.426 21.24 357.426 24.824V48.376C357.426 51.96 356.508 54.7333 354.674 56.696C352.839 58.6587 350.194 59.64 346.738 59.64ZM346.738 53.24C349.17 53.24 350.385 51.768 350.385 48.824V24.376C350.385 21.432 349.17 19.96 346.738 19.96C344.306 19.96 343.09 21.432 343.09 24.376V48.824C343.09 51.768 344.306 53.24 346.738 53.24ZM362.187 14.2H371.019L377.867 41.016H377.995V14.2H384.267V59H377.035L368.587 26.296H368.459V59H362.187V14.2ZM398.651 59.64C395.238 59.64 392.656 58.68 390.907 56.76C389.158 54.7973 388.283 52.0027 388.283 48.376V45.816H394.939V48.888C394.939 51.7893 396.155 53.24 398.587 53.24C399.782 53.24 400.678 52.8987 401.275 52.216C401.915 51.4907 402.235 50.3387 402.235 48.76C402.235 46.8827 401.808 45.24 400.955 43.832C400.102 42.3813 398.523 40.6533 396.219 38.648C393.318 36.088 391.291 33.784 390.139 31.736C388.987 29.6453 388.411 27.2987 388.411 24.696C388.411 21.1547 389.307 18.424 391.099 16.504C392.891 14.5413 395.494 13.56 398.907 13.56C402.278 13.56 404.816 14.5413 406.523 16.504C408.272 18.424 409.147 21.1973 409.147 24.824V26.68H402.491V24.376C402.491 22.84 402.192 21.7307 401.595 21.048C400.998 20.3227 400.123 19.96 398.971 19.96C396.624 19.96 395.451 21.3893 395.451 24.248C395.451 25.8693 395.878 27.384 396.731 28.792C397.627 30.2 399.227 31.9067 401.531 33.912C404.475 36.472 406.502 38.7973 407.611 40.888C408.72 42.9787 409.275 45.432 409.275 48.248C409.275 51.9173 408.358 54.7333 406.523 56.696C404.731 58.6587 402.107 59.64 398.651 59.64ZM413.312 14.2H420.352V59H413.312V14.2ZM425.624 14.2H436.376C439.875 14.2 442.499 15.1387 444.248 17.016C445.997 18.8933 446.872 21.6453 446.872 25.272V47.928C446.872 51.5547 445.997 54.3067 444.248 56.184C442.499 58.0613 439.875 59 436.376 59H425.624V14.2ZM436.248 52.6C437.4 52.6 438.275 52.2587 438.872 51.576C439.512 50.8933 439.832 49.784 439.832 48.248V24.952C439.832 23.416 439.512 22.3067 438.872 21.624C438.275 20.9413 437.4 20.6 436.248 20.6H432.664V52.6H436.248ZM451.624 14.2H470.824V20.6H458.664V32.44H468.328V38.84H458.664V52.6H470.824V59H451.624V14.2ZM474.874 14.2H485.306C488.933 14.2 491.578 15.0533 493.242 16.76C494.906 18.424 495.738 21.0053 495.738 24.504V27.256C495.738 31.9067 494.202 34.8507 491.13 36.088V36.216C492.837 36.728 494.031 37.7733 494.714 39.352C495.439 40.9307 495.802 43.0427 495.802 45.688V53.56C495.802 54.84 495.845 55.8853 495.93 56.696C496.015 57.464 496.229 58.232 496.57 59H489.402C489.146 58.2747 488.975 57.592 488.89 56.952C488.805 56.312 488.762 55.16 488.762 53.496V45.304C488.762 43.256 488.421 41.8267 487.738 41.016C487.098 40.2053 485.967 39.8 484.346 39.8H481.914V59H474.874V14.2ZM484.474 33.4C485.882 33.4 486.927 33.0373 487.61 32.312C488.335 31.5867 488.698 30.3707 488.698 28.664V25.208C488.698 23.5867 488.399 22.4133 487.802 21.688C487.247 20.9627 486.351 20.6 485.114 20.6H481.914V33.4H484.474ZM500.687 14.2H507.727V59H500.687V14.2ZM512.999 14.2H521.831L528.679 41.016H528.807V14.2H535.079V59H527.847L519.399 26.296H519.271V59H512.999V14.2ZM550.296 59.64C546.882 59.64 544.28 58.68 542.488 56.76C540.696 54.7973 539.799 52.0027 539.799 48.376V24.824C539.799 21.1973 540.696 18.424 542.488 16.504C544.28 14.5413 546.882 13.56 550.296 13.56C553.709 13.56 556.312 14.5413 558.104 16.504C559.896 18.424 560.792 21.1973 560.792 24.824V28.664H554.135V24.376C554.135 21.432 552.92 19.96 550.488 19.96C548.056 19.96 546.84 21.432 546.84 24.376V48.888C546.84 51.7893 548.056 53.24 550.488 53.24C552.92 53.24 554.135 51.7893 554.135 48.888V40.12H550.616V33.72H560.792V48.376C560.792 52.0027 559.896 54.7973 558.104 56.76C556.312 58.68 553.709 59.64 550.296 59.64ZM575.562 14.2H585.994C589.62 14.2 592.266 15.0533 593.93 16.76C595.594 18.424 596.426 21.0053 596.426 24.504V27.256C596.426 31.9067 594.89 34.8507 591.818 36.088V36.216C593.524 36.728 594.719 37.7733 595.402 39.352C596.127 40.9307 596.49 43.0427 596.49 45.688V53.56C596.49 54.84 596.532 55.8853 596.618 56.696C596.703 57.464 596.916 58.232 597.258 59H590.09C589.834 58.2747 589.663 57.592 589.578 56.952C589.492 56.312 589.45 55.16 589.45 53.496V45.304C589.45 43.256 589.108 41.8267 588.426 41.016C587.786 40.2053 586.655 39.8 585.034 39.8H582.602V59H575.562V14.2ZM585.162 33.4C586.57 33.4 587.615 33.0373 588.298 32.312C589.023 31.5867 589.385 30.3707 589.385 28.664V25.208C589.385 23.5867 589.087 22.4133 588.49 21.688C587.935 20.9627 587.039 20.6 585.802 20.6H582.602V33.4H585.162ZM601.374 14.2H608.414V59H601.374V14.2ZM622.839 59.64C619.425 59.64 616.844 58.68 615.095 56.76C613.345 54.7973 612.471 52.0027 612.471 48.376V45.816H619.127V48.888C619.127 51.7893 620.343 53.24 622.775 53.24C623.969 53.24 624.865 52.8987 625.463 52.216C626.103 51.4907 626.423 50.3387 626.423 48.76C626.423 46.8827 625.996 45.24 625.143 43.832C624.289 42.3813 622.711 40.6533 620.407 38.648C617.505 36.088 615.479 33.784 614.327 31.736C613.175 29.6453 612.599 27.2987 612.599 24.696C612.599 21.1547 613.495 18.424 615.286 16.504C617.079 14.5413 619.681 13.56 623.095 13.56C626.465 13.56 629.004 14.5413 630.711 16.504C632.46 18.424 633.335 21.1973 633.335 24.824V26.68H626.679V24.376C626.679 22.84 626.38 21.7307 625.783 21.048C625.185 20.3227 624.311 19.96 623.159 19.96C620.812 19.96 619.639 21.3893 619.639 24.248C619.639 25.8693 620.065 27.384 620.919 28.792C621.815 30.2 623.415 31.9067 625.719 33.912C628.663 36.472 630.689 38.7973 631.799 40.888C632.908 42.9787 633.463 45.432 633.463 48.248C633.463 51.9173 632.545 54.7333 630.711 56.696C628.919 58.6587 626.295 59.64 622.839 59.64ZM637.499 14.2H647.931C651.558 14.2 654.203 15.0533 655.867 16.76C657.531 18.424 658.363 21.0053 658.363 24.504V27.256C658.363 31.9067 656.827 34.8507 653.755 36.088V36.216C655.462 36.728 656.656 37.7733 657.339 39.352C658.064 40.9307 658.427 43.0427 658.427 45.688V53.56C658.427 54.84 658.47 55.8853 658.555 56.696C658.64 57.464 658.854 58.232 659.195 59H652.027C651.771 58.2747 651.6 57.592 651.515 56.952C651.43 56.312 651.387 55.16 651.387 53.496V45.304C651.387 43.256 651.046 41.8267 650.363 41.016C649.723 40.2053 648.592 39.8 646.971 39.8H644.539V59H637.499V14.2ZM647.099 33.4C648.507 33.4 649.552 33.0373 650.235 32.312C650.96 31.5867 651.323 30.3707 651.323 28.664V25.208C651.323 23.5867 651.024 22.4133 650.427 21.688C649.872 20.9627 648.976 20.6 647.739 20.6H644.539V33.4H647.099ZM673.562 14.2H692.186V20.6H680.602V33.08H689.69V39.48H680.602V59H673.562V14.2ZM705.738 59.64C702.282 59.64 699.636 58.6587 697.802 56.696C695.967 54.7333 695.049 51.96 695.049 48.376V24.824C695.049 21.24 695.967 18.4667 697.802 16.504C699.636 14.5413 702.282 13.56 705.738 13.56C709.194 13.56 711.839 14.5413 713.674 16.504C715.508 18.4667 716.426 21.24 716.426 24.824V48.376C716.426 51.96 715.508 54.7333 713.674 56.696C711.839 58.6587 709.194 59.64 705.738 59.64ZM705.738 53.24C708.17 53.24 709.385 51.768 709.385 48.824V24.376C709.385 21.432 708.17 19.96 705.738 19.96C703.306 19.96 702.09 21.432 702.09 24.376V48.824C702.09 51.768 703.306 53.24 705.738 53.24ZM721.187 14.2H731.619C735.245 14.2 737.891 15.0533 739.555 16.76C741.219 18.424 742.051 21.0053 742.051 24.504V27.256C742.051 31.9067 740.515 34.8507 737.443 36.088V36.216C739.149 36.728 740.344 37.7733 741.027 39.352C741.752 40.9307 742.115 43.0427 742.115 45.688V53.56C742.115 54.84 742.157 55.8853 742.243 56.696C742.328 57.464 742.541 58.232 742.883 59H735.715C735.459 58.2747 735.288 57.592 735.203 56.952C735.117 56.312 735.075 55.16 735.075 53.496V45.304C735.075 43.256 734.733 41.8267 734.051 41.016C733.411 40.2053 732.28 39.8 730.659 39.8H728.227V59H721.187V14.2ZM730.787 33.4C732.195 33.4 733.24 33.0373 733.923 32.312C734.648 31.5867 735.01 30.3707 735.01 28.664V25.208C735.01 23.5867 734.712 22.4133 734.115 21.688C733.56 20.9627 732.664 20.6 731.427 20.6H728.227V33.4H730.787ZM763.713 39.928L755.201 14.2H762.689L767.489 30.648H767.617L772.417 14.2H779.265L770.753 39.928V59H763.713V39.928ZM791.488 59.64C788.032 59.64 785.386 58.6587 783.552 56.696C781.717 54.7333 780.799 51.96 780.799 48.376V24.824C780.799 21.24 781.717 18.4667 783.552 16.504C785.386 14.5413 788.032 13.56 791.488 13.56C794.944 13.56 797.589 14.5413 799.424 16.504C801.258 18.4667 802.176 21.24 802.176 24.824V48.376C802.176 51.96 801.258 54.7333 799.424 56.696C797.589 58.6587 794.944 59.64 791.488 59.64ZM791.488 53.24C793.92 53.24 795.135 51.768 795.135 48.824V24.376C795.135 21.432 793.92 19.96 791.488 19.96C789.056 19.96 787.84 21.432 787.84 24.376V48.824C787.84 51.768 789.056 53.24 791.488 53.24ZM817.177 59.64C813.763 59.64 811.161 58.68 809.369 56.76C807.577 54.7973 806.681 52.0027 806.681 48.376V14.2H813.72V48.888C813.72 50.424 814.019 51.5333 814.617 52.216C815.257 52.8987 816.153 53.24 817.305 53.24C818.457 53.24 819.331 52.8987 819.929 52.216C820.569 51.5333 820.889 50.424 820.889 48.888V14.2H827.673V48.376C827.673 52.0027 826.777 54.7973 824.985 56.76C823.193 58.68 820.59 59.64 817.177 59.64ZM832.687 14.2H843.119C846.745 14.2 849.391 15.0533 851.055 16.76C852.719 18.424 853.551 21.0053 853.551 24.504V27.256C853.551 31.9067 852.015 34.8507 848.943 36.088V36.216C850.649 36.728 851.844 37.7733 852.527 39.352C853.252 40.9307 853.615 43.0427 853.615 45.688V53.56C853.615 54.84 853.657 55.8853 853.743 56.696C853.828 57.464 854.041 58.232 854.383 59H847.215C846.959 58.2747 846.788 57.592 846.703 56.952C846.617 56.312 846.575 55.16 846.575 53.496V45.304C846.575 43.256 846.233 41.8267 845.551 41.016C844.911 40.2053 843.78 39.8 842.159 39.8H839.727V59H832.687V14.2ZM842.287 33.4C843.695 33.4 844.74 33.0373 845.423 32.312C846.148 31.5867 846.51 30.3707 846.51 28.664V25.208C846.51 23.5867 846.212 22.4133 845.615 21.688C845.06 20.9627 844.164 20.6 842.927 20.6H839.727V33.4H842.287ZM878.669 59.64C875.298 59.64 872.717 58.68 870.925 56.76C869.176 54.84 868.301 52.1307 868.301 48.632V24.568C868.301 21.0693 869.176 18.36 870.925 16.44C872.717 14.52 875.298 13.56 878.669 13.56C882.04 13.56 884.6 14.52 886.349 16.44C888.141 18.36 889.037 21.0693 889.037 24.568V29.304H882.381V24.12C882.381 21.3467 881.208 19.96 878.861 19.96C876.514 19.96 875.341 21.3467 875.341 24.12V49.144C875.341 51.8747 876.514 53.24 878.861 53.24C881.208 53.24 882.381 51.8747 882.381 49.144V42.296H889.037V48.632C889.037 52.1307 888.141 54.84 886.349 56.76C884.6 58.68 882.04 59.64 878.669 59.64ZM893.249 14.2H900.289V32.44H907.841V14.2H914.881V59H907.841V38.84H900.289V59H893.249V14.2ZM920.124 14.2H927.164V59H920.124V14.2ZM932.437 14.2H939.477V52.6H951.061V59H932.437V14.2ZM954.437 14.2H965.189C968.687 14.2 971.311 15.1387 973.061 17.016C974.81 18.8933 975.685 21.6453 975.685 25.272V47.928C975.685 51.5547 974.81 54.3067 973.061 56.184C971.311 58.0613 968.687 59 965.189 59H954.437V14.2ZM965.061 52.6C966.213 52.6 967.087 52.2587 967.685 51.576C968.325 50.8933 968.645 49.784 968.645 48.248V24.952C968.645 23.416 968.325 22.3067 967.685 21.624C967.087 20.9413 966.213 20.6 965.061 20.6H961.477V52.6H965.061ZM981.013 32.888V14.2H988.053V32.888L987.157 47.16H981.909L981.013 32.888ZM981.141 52.216H987.925V59H981.141V52.216Z" fill="#1C355E"/>
<path d="M0 88L1200 88.0002" stroke="#1C355E" stroke-width="2"/>
</svg>
