<svg width="221" height="27" viewBox="0 0 221 27" fill="none" xmlns="http://www.w3.org/2000/svg">
<path d="M4.95202 0.800487H10.316L14.42 26.0005H10.46L9.74002 20.9965V21.0685H5.24002L4.52002 26.0005H0.848016L4.95202 0.800487ZM9.27202 17.6485L7.50802 5.19249H7.43602L5.70802 17.6485H9.27202ZM16.3412 0.800487H22.3892C24.3572 0.800487 25.8332 1.32849 26.8172 2.38449C27.8012 3.44049 28.2932 4.98849 28.2932 7.02849V19.7725C28.2932 21.8125 27.8012 23.3605 26.8172 24.4165C25.8332 25.4725 24.3572 26.0005 22.3892 26.0005H16.3412V0.800487ZM22.3172 22.4005C22.9652 22.4005 23.4572 22.2085 23.7932 21.8245C24.1532 21.4405 24.3332 20.8165 24.3332 19.9525V6.84849C24.3332 5.98449 24.1532 5.36049 23.7932 4.97649C23.4572 4.59249 22.9652 4.40049 22.3172 4.40049H20.3012V22.4005H22.3172ZM30.9662 0.800487H36.6182L39.1382 18.8365H39.2102L41.7302 0.800487H47.3822V26.0005H43.6382V6.92049H43.5662L40.6862 26.0005H37.3742L34.4942 6.92049H34.4222V26.0005H30.9662V0.800487ZM50.3373 0.800487H54.2973V26.0005H50.3373V0.800487ZM62.4111 26.3605C60.4911 26.3605 59.0391 25.8205 58.0551 24.7405C57.0711 23.6365 56.5791 22.0645 56.5791 20.0245V18.5845H60.3231V20.3125C60.3231 21.9445 61.0071 22.7605 62.3751 22.7605C63.0471 22.7605 63.5511 22.5685 63.8871 22.1845C64.2471 21.7765 64.4271 21.1285 64.4271 20.2405C64.4271 19.1845 64.1871 18.2605 63.7071 17.4685C63.2271 16.6525 62.3391 15.6805 61.0431 14.5525C59.4111 13.1125 58.2711 11.8165 57.6231 10.6645C56.9751 9.48849 56.6511 8.16849 56.6511 6.70449C56.6511 4.71249 57.1551 3.17649 58.1631 2.09649C59.1711 0.992487 60.6351 0.440487 62.5551 0.440487C64.4511 0.440487 65.8791 0.992487 66.8391 2.09649C67.8231 3.17649 68.3151 4.73649 68.3151 6.77649V7.82049H64.5711V6.52449C64.5711 5.66049 64.4031 5.03649 64.0671 4.65249C63.7311 4.24449 63.2391 4.04049 62.5911 4.04049C61.2711 4.04049 60.6111 4.84449 60.6111 6.45249C60.6111 7.36449 60.8511 8.21649 61.3311 9.00849C61.8351 9.80049 62.7351 10.7605 64.0311 11.8885C65.6871 13.3285 66.8271 14.6365 67.4511 15.8125C68.0751 16.9885 68.3871 18.3685 68.3871 19.9525C68.3871 22.0165 67.8711 23.6005 66.8391 24.7045C65.8311 25.8085 64.3551 26.3605 62.4111 26.3605ZM75.8056 26.3605C73.8856 26.3605 72.4336 25.8205 71.4496 24.7405C70.4656 23.6365 69.9736 22.0645 69.9736 20.0245V18.5845H73.7176V20.3125C73.7176 21.9445 74.4016 22.7605 75.7696 22.7605C76.4416 22.7605 76.9456 22.5685 77.2816 22.1845C77.6416 21.7765 77.8216 21.1285 77.8216 20.2405C77.8216 19.1845 77.5816 18.2605 77.1016 17.4685C76.6216 16.6525 75.7336 15.6805 74.4376 14.5525C72.8056 13.1125 71.6656 11.8165 71.0176 10.6645C70.3696 9.48849 70.0456 8.16849 70.0456 6.70449C70.0456 4.71249 70.5496 3.17649 71.5576 2.09649C72.5656 0.992487 74.0296 0.440487 75.9496 0.440487C77.8456 0.440487 79.2736 0.992487 80.2336 2.09649C81.2176 3.17649 81.7096 4.73649 81.7096 6.77649V7.82049H77.9656V6.52449C77.9656 5.66049 77.7976 5.03649 77.4616 4.65249C77.1256 4.24449 76.6336 4.04049 75.9856 4.04049C74.6656 4.04049 74.0056 4.84449 74.0056 6.45249C74.0056 7.36449 74.2456 8.21649 74.7256 9.00849C75.2296 9.80049 76.1296 10.7605 77.4256 11.8885C79.0816 13.3285 80.2216 14.6365 80.8456 15.8125C81.4696 16.9885 81.7816 18.3685 81.7816 19.9525C81.7816 22.0165 81.2656 23.6005 80.2336 24.7045C79.2256 25.8085 77.7496 26.3605 75.8056 26.3605ZM84.0522 0.800487H88.0122V26.0005H84.0522V0.800487ZM96.702 26.3605C94.758 26.3605 93.27 25.8085 92.238 24.7045C91.206 23.6005 90.69 22.0405 90.69 20.0245V6.77649C90.69 4.76049 91.206 3.20049 92.238 2.09649C93.27 0.992487 94.758 0.440487 96.702 0.440487C98.646 0.440487 100.134 0.992487 101.166 2.09649C102.198 3.20049 102.714 4.76049 102.714 6.77649V20.0245C102.714 22.0405 102.198 23.6005 101.166 24.7045C100.134 25.8085 98.646 26.3605 96.702 26.3605ZM96.702 22.7605C98.07 22.7605 98.754 21.9325 98.754 20.2765V6.52449C98.754 4.86849 98.07 4.04049 96.702 4.04049C95.334 4.04049 94.65 4.86849 94.65 6.52449V20.2765C94.65 21.9325 95.334 22.7605 96.702 22.7605ZM105.392 0.800487H110.36L114.212 15.8845H114.284V0.800487H117.812V26.0005H113.744L108.992 7.60449H108.92V26.0005H105.392V0.800487ZM126.521 0.800487H132.353C134.321 0.800487 135.797 1.32849 136.781 2.38449C137.765 3.44049 138.257 4.98849 138.257 7.02849V9.51249C138.257 11.5525 137.765 13.1005 136.781 14.1565C135.797 15.2125 134.321 15.7405 132.353 15.7405H130.481V26.0005H126.521V0.800487ZM132.353 12.1405C133.001 12.1405 133.481 11.9605 133.793 11.6005C134.129 11.2405 134.297 10.6285 134.297 9.76449V6.77649C134.297 5.91249 134.129 5.30049 133.793 4.94049C133.481 4.58049 133.001 4.40049 132.353 4.40049H130.481V12.1405H132.353ZM140.408 0.800487H146.276C148.316 0.800487 149.804 1.28049 150.74 2.24049C151.676 3.17649 152.144 4.62849 152.144 6.59649V8.14449C152.144 10.7605 151.28 12.4165 149.552 13.1125V13.1845C150.512 13.4725 151.184 14.0605 151.568 14.9485C151.976 15.8365 152.18 17.0245 152.18 18.5125V22.9405C152.18 23.6605 152.204 24.2485 152.252 24.7045C152.3 25.1365 152.42 25.5685 152.612 26.0005H148.58C148.436 25.5925 148.34 25.2085 148.292 24.8485C148.244 24.4885 148.22 23.8405 148.22 22.9045V18.2965C148.22 17.1445 148.028 16.3405 147.644 15.8845C147.284 15.4285 146.648 15.2005 145.736 15.2005H144.368V26.0005H140.408V0.800487ZM145.808 11.6005C146.6 11.6005 147.188 11.3965 147.572 10.9885C147.98 10.5805 148.184 9.89649 148.184 8.93649V6.99249C148.184 6.08049 148.016 5.42049 147.68 5.01249C147.368 4.60449 146.864 4.40049 146.168 4.40049H144.368V11.6005H145.808ZM160.651 26.3605C158.707 26.3605 157.219 25.8085 156.187 24.7045C155.155 23.6005 154.639 22.0405 154.639 20.0245V6.77649C154.639 4.76049 155.155 3.20049 156.187 2.09649C157.219 0.992487 158.707 0.440487 160.651 0.440487C162.595 0.440487 164.083 0.992487 165.115 2.09649C166.147 3.20049 166.663 4.76049 166.663 6.77649V20.0245C166.663 22.0405 166.147 23.6005 165.115 24.7045C164.083 25.8085 162.595 26.3605 160.651 26.3605ZM160.651 22.7605C162.019 22.7605 162.703 21.9325 162.703 20.2765V6.52449C162.703 4.86849 162.019 4.04049 160.651 4.04049C159.283 4.04049 158.599 4.86849 158.599 6.52449V20.2765C158.599 21.9325 159.283 22.7605 160.651 22.7605ZM174.921 26.3605C173.025 26.3605 171.573 25.8205 170.565 24.7405C169.581 23.6605 169.089 22.1365 169.089 20.1685V6.63249C169.089 4.66449 169.581 3.14049 170.565 2.06049C171.573 0.980487 173.025 0.440487 174.921 0.440487C176.817 0.440487 178.257 0.980487 179.241 2.06049C180.249 3.14049 180.753 4.66449 180.753 6.63249V9.29649H177.009V6.38049C177.009 4.82049 176.349 4.04049 175.029 4.04049C173.709 4.04049 173.049 4.82049 173.049 6.38049V20.4565C173.049 21.9925 173.709 22.7605 175.029 22.7605C176.349 22.7605 177.009 21.9925 177.009 20.4565V16.6045H180.753V20.1685C180.753 22.1365 180.249 23.6605 179.241 24.7405C178.257 25.8205 176.817 26.3605 174.921 26.3605ZM183.122 0.800487H193.922V4.40049H187.082V11.0605H192.518V14.6605H187.082V22.4005H193.922V26.0005H183.122V0.800487ZM201.419 26.3605C199.499 26.3605 198.047 25.8205 197.063 24.7405C196.079 23.6365 195.587 22.0645 195.587 20.0245V18.5845H199.331V20.3125C199.331 21.9445 200.015 22.7605 201.383 22.7605C202.055 22.7605 202.559 22.5685 202.895 22.1845C203.255 21.7765 203.435 21.1285 203.435 20.2405C203.435 19.1845 203.195 18.2605 202.715 17.4685C202.235 16.6525 201.347 15.6805 200.051 14.5525C198.419 13.1125 197.279 11.8165 196.631 10.6645C195.983 9.48849 195.659 8.16849 195.659 6.70449C195.659 4.71249 196.163 3.17649 197.171 2.09649C198.179 0.992487 199.643 0.440487 201.563 0.440487C203.459 0.440487 204.887 0.992487 205.847 2.09649C206.831 3.17649 207.323 4.73649 207.323 6.77649V7.82049H203.579V6.52449C203.579 5.66049 203.411 5.03649 203.075 4.65249C202.739 4.24449 202.247 4.04049 201.599 4.04049C200.279 4.04049 199.619 4.84449 199.619 6.45249C199.619 7.36449 199.859 8.21649 200.339 9.00849C200.843 9.80049 201.743 10.7605 203.039 11.8885C204.695 13.3285 205.835 14.6365 206.459 15.8125C207.083 16.9885 207.395 18.3685 207.395 19.9525C207.395 22.0165 206.879 23.6005 205.847 24.7045C204.839 25.8085 203.363 26.3605 201.419 26.3605ZM214.813 26.3605C212.893 26.3605 211.441 25.8205 210.457 24.7405C209.473 23.6365 208.981 22.0645 208.981 20.0245V18.5845H212.725V20.3125C212.725 21.9445 213.409 22.7605 214.777 22.7605C215.449 22.7605 215.953 22.5685 216.289 22.1845C216.649 21.7765 216.829 21.1285 216.829 20.2405C216.829 19.1845 216.589 18.2605 216.109 17.4685C215.629 16.6525 214.741 15.6805 213.445 14.5525C211.813 13.1125 210.673 11.8165 210.025 10.6645C209.377 9.48849 209.053 8.16849 209.053 6.70449C209.053 4.71249 209.557 3.17649 210.565 2.09649C211.573 0.992487 213.037 0.440487 214.957 0.440487C216.853 0.440487 218.281 0.992487 219.241 2.09649C220.225 3.17649 220.717 4.73649 220.717 6.77649V7.82049H216.973V6.52449C216.973 5.66049 216.805 5.03649 216.469 4.65249C216.133 4.24449 215.641 4.04049 214.993 4.04049C213.673 4.04049 213.013 4.84449 213.013 6.45249C213.013 7.36449 213.253 8.21649 213.733 9.00849C214.237 9.80049 215.137 10.7605 216.433 11.8885C218.089 13.3285 219.229 14.6365 219.853 15.8125C220.477 16.9885 220.789 18.3685 220.789 19.9525C220.789 22.0165 220.273 23.6005 219.241 24.7045C218.233 25.8085 216.757 26.3605 214.813 26.3605Z" fill="#1C355E"/>
</svg>
