<svg width="1200" height="232" viewBox="0 0 1200 232" fill="none" xmlns="http://www.w3.org/2000/svg">
<path d="M12.544 59.64C9.17333 59.64 6.592 58.68 4.8 56.76C3.05067 54.84 2.176 52.1307 2.176 48.632V24.568C2.176 21.0693 3.05067 18.36 4.8 16.44C6.592 14.52 9.17333 13.56 12.544 13.56C15.9147 13.56 18.4747 14.52 20.224 16.44C22.016 18.36 22.912 21.0693 22.912 24.568V29.304H16.256V24.12C16.256 21.3467 15.0827 19.96 12.736 19.96C10.3893 19.96 9.216 21.3467 9.216 24.12V49.144C9.216 51.8747 10.3893 53.24 12.736 53.24C15.0827 53.24 16.256 51.8747 16.256 49.144V42.296H22.912V48.632C22.912 52.1307 22.016 54.84 20.224 56.76C18.4747 58.68 15.9147 59.64 12.544 59.64ZM27.124 14.2H34.164V52.6H45.748V59H27.124V14.2ZM49.124 14.2H56.164V59H49.124V14.2ZM71.3565 59.64C67.9858 59.64 65.4045 58.68 63.6125 56.76C61.8632 54.84 60.9885 52.1307 60.9885 48.632V24.568C60.9885 21.0693 61.8632 18.36 63.6125 16.44C65.4045 14.52 67.9858 13.56 71.3565 13.56C74.7272 13.56 77.2872 14.52 79.0365 16.44C80.8285 18.36 81.7245 21.0693 81.7245 24.568V29.304H75.0685V24.12C75.0685 21.3467 73.8952 19.96 71.5485 19.96C69.2018 19.96 68.0285 21.3467 68.0285 24.12V49.144C68.0285 51.8747 69.2018 53.24 71.5485 53.24C73.8952 53.24 75.0685 51.8747 75.0685 49.144V42.296H81.7245V48.632C81.7245 52.1307 80.8285 54.84 79.0365 56.76C77.2872 58.68 74.7272 59.64 71.3565 59.64ZM85.9365 14.2H92.9765V33.08L101.937 14.2H108.977L100.593 30.648L109.105 59H101.745L95.7925 39.032L92.9765 44.728V59H85.9365V14.2ZM122.687 14.2H133.311C136.937 14.2 139.583 15.0533 141.247 16.76C142.911 18.424 143.743 21.0053 143.743 24.504V26.296C143.743 28.6 143.359 30.4773 142.591 31.928C141.865 33.3787 140.735 34.424 139.199 35.064V35.192C142.697 36.3867 144.447 39.5013 144.447 44.536V48.376C144.447 51.832 143.529 54.4773 141.695 56.312C139.903 58.104 137.257 59 133.759 59H122.687V14.2ZM132.479 32.44C133.887 32.44 134.932 32.0773 135.615 31.352C136.34 30.6267 136.703 29.4107 136.703 27.704V25.208C136.703 23.5867 136.404 22.4133 135.807 21.688C135.252 20.9627 134.356 20.6 133.119 20.6H129.727V32.44H132.479ZM133.759 52.6C134.996 52.6 135.913 52.28 136.51 51.64C137.108 50.9573 137.407 49.8053 137.407 48.184V44.28C137.407 42.232 137.044 40.824 136.319 40.056C135.636 39.2453 134.484 38.84 132.863 38.84H129.727V52.6H133.759ZM148.562 14.2H167.762V20.6H155.602V32.44H165.266V38.84H155.602V52.6H167.762V59H148.562V14.2ZM171.812 14.2H178.852V52.6H190.436V59H171.812V14.2ZM203.738 59.64C200.282 59.64 197.636 58.6587 195.802 56.696C193.967 54.7333 193.049 51.96 193.049 48.376V24.824C193.049 21.24 193.967 18.4667 195.802 16.504C197.636 14.5413 200.282 13.56 203.738 13.56C207.194 13.56 209.839 14.5413 211.674 16.504C213.508 18.4667 214.426 21.24 214.426 24.824V48.376C214.426 51.96 213.508 54.7333 211.674 56.696C209.839 58.6587 207.194 59.64 203.738 59.64ZM203.738 53.24C206.17 53.24 207.385 51.768 207.385 48.824V24.376C207.385 21.432 206.17 19.96 203.738 19.96C201.306 19.96 200.09 21.432 200.09 24.376V48.824C200.09 51.768 201.306 53.24 203.738 53.24ZM217.523 14.2H224.307L227.443 48.632H227.571L230.899 14.2H238.579L241.907 48.632H242.035L245.171 14.2H251.251L246.707 59H237.939L234.739 28.792H234.611L231.411 59H222.067L217.523 14.2ZM270.566 20.6H263.206V14.2H284.966V20.6H277.606V59H270.566V20.6ZM298.3 59.64C294.844 59.64 292.199 58.6587 290.364 56.696C288.529 54.7333 287.612 51.96 287.612 48.376V24.824C287.612 21.24 288.529 18.4667 290.364 16.504C292.199 14.5413 294.844 13.56 298.3 13.56C301.756 13.56 304.401 14.5413 306.236 16.504C308.071 18.4667 308.988 21.24 308.988 24.824V48.376C308.988 51.96 308.071 54.7333 306.236 56.696C304.401 58.6587 301.756 59.64 298.3 59.64ZM298.3 53.24C300.732 53.24 301.948 51.768 301.948 48.824V24.376C301.948 21.432 300.732 19.96 298.3 19.96C295.868 19.96 294.652 21.432 294.652 24.376V48.824C294.652 51.768 295.868 53.24 298.3 53.24ZM322.143 14.2H329.247L333.855 48.952H333.983L338.591 14.2H345.055L338.271 59H328.927L322.143 14.2ZM348.437 14.2H355.477V59H348.437V14.2ZM360.749 14.2H379.949V20.6H367.789V32.44H377.453V38.84H367.789V52.6H379.949V59H360.749V14.2ZM382.335 14.2H389.119L392.255 48.632H392.383L395.711 14.2H403.391L406.719 48.632H406.847L409.983 14.2H416.063L411.519 59H402.751L399.551 28.792H399.423L396.223 59H386.879L382.335 14.2ZM435.314 14.2H444.85L452.146 59H445.106L443.826 50.104V50.232H435.826L434.546 59H428.018L435.314 14.2ZM442.994 44.152L439.858 22.008H439.73L436.658 44.152H442.994ZM465.812 14.2H472.852V52.6H484.436V59H465.812V14.2ZM487.812 14.2H494.852V59H487.812V14.2ZM500.124 14.2H508.956L515.804 41.016H515.932V14.2H522.204V59H514.972L506.524 26.296H506.396V59H500.124V14.2ZM527.437 14.2H534.477V33.08L543.437 14.2H550.477L542.093 30.648L550.605 59H543.245L537.293 39.032L534.477 44.728V59H527.437V14.2ZM574.363 59.64C570.907 59.64 568.261 58.6587 566.427 56.696C564.592 54.7333 563.674 51.96 563.674 48.376V24.824C563.674 21.24 564.592 18.4667 566.427 16.504C568.261 14.5413 570.907 13.56 574.363 13.56C577.819 13.56 580.464 14.5413 582.299 16.504C584.133 18.4667 585.051 21.24 585.051 24.824V48.376C585.051 51.96 584.133 54.7333 582.299 56.696C580.464 58.6587 577.819 59.64 574.363 59.64ZM574.363 53.24C576.795 53.24 578.01 51.768 578.01 48.824V24.376C578.01 21.432 576.795 19.96 574.363 19.96C571.931 19.96 570.715 21.432 570.715 24.376V48.824C570.715 51.768 571.931 53.24 574.363 53.24ZM589.812 14.2H600.244C603.87 14.2 606.516 15.0533 608.18 16.76C609.844 18.424 610.676 21.0053 610.676 24.504V27.256C610.676 31.9067 609.14 34.8507 606.068 36.088V36.216C607.774 36.728 608.969 37.7733 609.652 39.352C610.377 40.9307 610.74 43.0427 610.74 45.688V53.56C610.74 54.84 610.782 55.8853 610.868 56.696C610.953 57.464 611.166 58.232 611.508 59H604.34C604.084 58.2747 603.913 57.592 603.828 56.952C603.742 56.312 603.7 55.16 603.7 53.496V45.304C603.7 43.256 603.358 41.8267 602.676 41.016C602.036 40.2053 600.905 39.8 599.284 39.8H596.852V59H589.812V14.2ZM599.412 33.4C600.82 33.4 601.865 33.0373 602.548 32.312C603.273 31.5867 603.635 30.3707 603.635 28.664V25.208C603.635 23.5867 603.337 22.4133 602.74 21.688C602.185 20.9627 601.289 20.6 600.052 20.6H596.852V33.4H599.412ZM625.874 14.2H636.626C640.125 14.2 642.749 15.1387 644.498 17.016C646.247 18.8933 647.122 21.6453 647.122 25.272V47.928C647.122 51.5547 646.247 54.3067 644.498 56.184C642.749 58.0613 640.125 59 636.626 59H625.874V14.2ZM636.498 52.6C637.65 52.6 638.525 52.2587 639.122 51.576C639.762 50.8933 640.082 49.784 640.082 48.248V24.952C640.082 23.416 639.762 22.3067 639.122 21.624C638.525 20.9413 637.65 20.6 636.498 20.6H632.914V52.6H636.498ZM662.05 59.64C658.594 59.64 655.949 58.6587 654.114 56.696C652.279 54.7333 651.362 51.96 651.362 48.376V24.824C651.362 21.24 652.279 18.4667 654.114 16.504C655.949 14.5413 658.594 13.56 662.05 13.56C665.506 13.56 668.151 14.5413 669.986 16.504C671.821 18.4667 672.738 21.24 672.738 24.824V48.376C672.738 51.96 671.821 54.7333 669.986 56.696C668.151 58.6587 665.506 59.64 662.05 59.64ZM662.05 53.24C664.482 53.24 665.698 51.768 665.698 48.824V24.376C665.698 21.432 664.482 19.96 662.05 19.96C659.618 19.96 658.402 21.432 658.402 24.376V48.824C658.402 51.768 659.618 53.24 662.05 53.24ZM675.835 14.2H682.619L685.755 48.632H685.883L689.211 14.2H696.891L700.219 48.632H700.347L703.483 14.2H709.563L705.019 59H696.251L693.051 28.792H692.923L689.723 59H680.379L675.835 14.2ZM713.124 14.2H721.956L728.804 41.016H728.932V14.2H735.204V59H727.972L719.524 26.296H719.396V59H713.124V14.2ZM740.437 14.2H747.477V52.6H759.061V59H740.437V14.2ZM772.363 59.64C768.907 59.64 766.261 58.6587 764.427 56.696C762.592 54.7333 761.674 51.96 761.674 48.376V24.824C761.674 21.24 762.592 18.4667 764.427 16.504C766.261 14.5413 768.907 13.56 772.363 13.56C775.819 13.56 778.464 14.5413 780.299 16.504C782.133 18.4667 783.051 21.24 783.051 24.824V48.376C783.051 51.96 782.133 54.7333 780.299 56.696C778.464 58.6587 775.819 59.64 772.363 59.64ZM772.363 53.24C774.795 53.24 776.01 51.768 776.01 48.824V24.376C776.01 21.432 774.795 19.96 772.363 19.96C769.931 19.96 768.715 21.432 768.715 24.376V48.824C768.715 51.768 769.931 53.24 772.363 53.24ZM793.127 14.2H802.663L809.959 59H802.919L801.639 50.104V50.232H793.639L792.359 59H785.831L793.127 14.2ZM800.807 44.152L797.671 22.008H797.543L794.47 44.152H800.807ZM813.374 14.2H824.126C827.625 14.2 830.249 15.1387 831.998 17.016C833.747 18.8933 834.622 21.6453 834.622 25.272V47.928C834.622 51.5547 833.747 54.3067 831.998 56.184C830.249 58.0613 827.625 59 824.126 59H813.374V14.2ZM823.998 52.6C825.15 52.6 826.025 52.2587 826.622 51.576C827.262 50.8933 827.582 49.784 827.582 48.248V24.952C827.582 23.416 827.262 22.3067 826.622 21.624C826.025 20.9413 825.15 20.6 823.998 20.6H820.414V52.6H823.998ZM855.064 14.2H864.6L871.896 59H864.856L863.576 50.104V50.232H855.576L854.296 59H847.768L855.064 14.2ZM862.744 44.152L859.608 22.008H859.48L856.408 44.152H862.744ZM885.562 14.2H895.93C899.428 14.2 902.052 15.1387 903.802 17.016C905.551 18.8933 906.426 21.6453 906.426 25.272V29.688C906.426 33.3147 905.551 36.0667 903.802 37.944C902.052 39.8213 899.428 40.76 895.93 40.76H892.602V59H885.562V14.2ZM895.93 34.36C897.082 34.36 897.935 34.04 898.49 33.4C899.087 32.76 899.385 31.672 899.385 30.136V24.824C899.385 23.288 899.087 22.2 898.49 21.56C897.935 20.92 897.082 20.6 895.93 20.6H892.602V34.36H895.93ZM910.249 14.2H921.001C924.5 14.2 927.124 15.1387 928.873 17.016C930.622 18.8933 931.497 21.6453 931.497 25.272V47.928C931.497 51.5547 930.622 54.3067 928.873 56.184C927.124 58.0613 924.5 59 921.001 59H910.249V14.2ZM920.873 52.6C922.025 52.6 922.9 52.2587 923.497 51.576C924.137 50.8933 924.457 49.784 924.457 48.248V24.952C924.457 23.416 924.137 22.3067 923.497 21.624C922.9 20.9413 922.025 20.6 920.873 20.6H917.289V52.6H920.873ZM936.249 14.2H954.873V20.6H943.289V33.08H952.377V39.48H943.289V59H936.249V14.2ZM958.249 27.832H965.033V34.616H958.249V27.832ZM958.249 52.216H965.033V59H958.249V52.216Z" fill="#1C355E"/>
<path d="M0 88L1200 88.0002" stroke="#1C355E" stroke-width="2"/>
<path d="M3.584 119.496H0.112V117.672H9.072V119.496H5.6V129H3.584V119.496ZM15.8148 129H13.9908V127.768H13.9588C13.7774 128.152 13.5001 128.488 13.1268 128.776C12.7534 129.054 12.2468 129.192 11.6068 129.192C11.0948 129.192 10.6574 129.112 10.2948 128.952C9.94275 128.782 9.65475 128.558 9.43075 128.28C9.20675 127.992 9.04675 127.667 8.95075 127.304C8.85475 126.942 8.80675 126.563 8.80675 126.168V121.32H10.7268V125.208C10.7268 125.422 10.7374 125.662 10.7588 125.928C10.7801 126.184 10.8334 126.43 10.9188 126.664C11.0148 126.888 11.1534 127.08 11.3348 127.24C11.5268 127.39 11.7934 127.464 12.1348 127.464C12.4548 127.464 12.7214 127.411 12.9348 127.304C13.1588 127.198 13.3401 127.054 13.4788 126.872C13.6281 126.691 13.7348 126.483 13.7988 126.248C13.8628 126.014 13.8948 125.768 13.8948 125.512V121.32H15.8148V129ZM18.0263 121.32H19.9463V129H18.0263V121.32ZM17.7543 118.712C17.7543 118.403 17.8663 118.136 18.0903 117.912C18.3249 117.678 18.6183 117.56 18.9703 117.56C19.3223 117.56 19.6156 117.672 19.8503 117.896C20.0956 118.11 20.2183 118.382 20.2183 118.712C20.2183 119.043 20.0956 119.32 19.8503 119.544C19.6156 119.758 19.3223 119.864 18.9703 119.864C18.6183 119.864 18.3249 119.752 18.0903 119.528C17.8663 119.294 17.7543 119.022 17.7543 118.712ZM21.2545 122.952V121.32H22.8385V119.096H24.7585V121.32H26.8705V122.952H24.7585V126.312C24.7585 126.696 24.8278 127 24.9665 127.224C25.1158 127.448 25.4038 127.56 25.8305 127.56C26.0012 127.56 26.1878 127.544 26.3905 127.512C26.5932 127.47 26.7532 127.406 26.8705 127.32V128.936C26.6678 129.032 26.4172 129.096 26.1185 129.128C25.8305 129.171 25.5745 129.192 25.3505 129.192C24.8385 129.192 24.4172 129.134 24.0865 129.016C23.7665 128.91 23.5105 128.744 23.3185 128.52C23.1372 128.286 23.0092 127.998 22.9345 127.656C22.8705 127.315 22.8385 126.92 22.8385 126.472V122.952H21.2545ZM28.4169 121.32H30.3369V129H28.4169V121.32ZM28.1449 118.712C28.1449 118.403 28.2569 118.136 28.4809 117.912C28.7155 117.678 29.0089 117.56 29.3609 117.56C29.7129 117.56 30.0062 117.672 30.2409 117.896C30.4862 118.11 30.6089 118.382 30.6089 118.712C30.6089 119.043 30.4862 119.32 30.2409 119.544C30.0062 119.758 29.7129 119.864 29.3609 119.864C29.0089 119.864 28.7155 119.752 28.4809 119.528C28.2569 119.294 28.1449 119.022 28.1449 118.712ZM32.1571 125.16C32.1571 124.552 32.2638 124.003 32.4771 123.512C32.7011 123.011 32.9998 122.584 33.3731 122.232C33.7465 121.88 34.1891 121.608 34.7011 121.416C35.2131 121.224 35.7571 121.128 36.3331 121.128C36.9091 121.128 37.4531 121.224 37.9651 121.416C38.4771 121.608 38.9198 121.88 39.2931 122.232C39.6665 122.584 39.9598 123.011 40.1731 123.512C40.3971 124.003 40.5091 124.552 40.5091 125.16C40.5091 125.768 40.3971 126.323 40.1731 126.824C39.9598 127.315 39.6665 127.736 39.2931 128.088C38.9198 128.44 38.4771 128.712 37.9651 128.904C37.4531 129.096 36.9091 129.192 36.3331 129.192C35.7571 129.192 35.2131 129.096 34.7011 128.904C34.1891 128.712 33.7465 128.44 33.3731 128.088C32.9998 127.736 32.7011 127.315 32.4771 126.824C32.2638 126.323 32.1571 125.768 32.1571 125.16ZM34.0771 125.16C34.0771 125.459 34.1251 125.747 34.2211 126.024C34.3278 126.302 34.4771 126.547 34.6691 126.76C34.8718 126.974 35.1118 127.144 35.3891 127.272C35.6665 127.4 35.9811 127.464 36.3331 127.464C36.6851 127.464 36.9998 127.4 37.2771 127.272C37.5545 127.144 37.7891 126.974 37.9811 126.76C38.1838 126.547 38.3331 126.302 38.4291 126.024C38.5358 125.747 38.5891 125.459 38.5891 125.16C38.5891 124.862 38.5358 124.574 38.4291 124.296C38.3331 124.019 38.1838 123.774 37.9811 123.56C37.7891 123.347 37.5545 123.176 37.2771 123.048C36.9998 122.92 36.6851 122.856 36.3331 122.856C35.9811 122.856 35.6665 122.92 35.3891 123.048C35.1118 123.176 34.8718 123.347 34.6691 123.56C34.4771 123.774 34.3278 124.019 34.2211 124.296C34.1251 124.574 34.0771 124.862 34.0771 125.16ZM42.3068 121.32H44.1308V122.552H44.1628C44.3441 122.168 44.6214 121.838 44.9948 121.56C45.3681 121.272 45.8748 121.128 46.5148 121.128C47.0268 121.128 47.4588 121.214 47.8108 121.384C48.1734 121.555 48.4668 121.779 48.6908 122.056C48.9148 122.334 49.0748 122.654 49.1708 123.016C49.2668 123.379 49.3148 123.758 49.3148 124.152V129H47.3948V125.112C47.3948 124.899 47.3841 124.664 47.3628 124.408C47.3414 124.142 47.2828 123.896 47.1868 123.672C47.1014 123.438 46.9628 123.246 46.7708 123.096C46.5788 122.936 46.3174 122.856 45.9868 122.856C45.6668 122.856 45.3948 122.91 45.1708 123.016C44.9574 123.123 44.7761 123.267 44.6268 123.448C44.4881 123.63 44.3868 123.838 44.3228 124.072C44.2588 124.307 44.2268 124.552 44.2268 124.808V129H42.3068V121.32ZM64.3246 126.328L66.7726 129H64.2926L63.0926 127.704C62.634 128.248 62.1433 128.648 61.6206 128.904C61.098 129.16 60.474 129.288 59.7486 129.288C59.2473 129.288 58.762 129.214 58.2926 129.064C57.834 128.926 57.4286 128.718 57.0766 128.44C56.7246 128.152 56.442 127.806 56.2286 127.4C56.0153 126.984 55.9086 126.504 55.9086 125.96C55.9086 125.576 55.9726 125.224 56.1006 124.904C56.2286 124.574 56.3993 124.275 56.6126 124.008C56.8366 123.731 57.098 123.491 57.3966 123.288C57.6953 123.075 58.0153 122.904 58.3566 122.776C58.1753 122.574 58.0046 122.376 57.8446 122.184C57.6953 121.992 57.562 121.795 57.4446 121.592C57.3273 121.39 57.2313 121.171 57.1566 120.936C57.0926 120.702 57.0606 120.446 57.0606 120.168C57.0606 119.71 57.146 119.304 57.3166 118.952C57.498 118.6 57.738 118.312 58.0366 118.088C58.3353 117.854 58.682 117.678 59.0766 117.56C59.4713 117.443 59.882 117.384 60.3086 117.384C60.7353 117.384 61.1406 117.438 61.5246 117.544C61.9086 117.651 62.2446 117.816 62.5326 118.04C62.8313 118.254 63.066 118.531 63.2366 118.872C63.418 119.214 63.5086 119.614 63.5086 120.072C63.5086 120.424 63.4446 120.75 63.3166 121.048C63.1886 121.336 63.018 121.603 62.8046 121.848C62.5913 122.083 62.346 122.302 62.0686 122.504C61.802 122.696 61.53 122.862 61.2526 123L63.0766 124.968L64.3406 123.048H66.5966L64.3246 126.328ZM60.3406 119.112C59.9673 119.112 59.6473 119.219 59.3806 119.432C59.114 119.635 58.9806 119.907 58.9806 120.248C58.9806 120.398 59.0126 120.547 59.0766 120.696C59.1406 120.835 59.226 120.979 59.3326 121.128C59.4393 121.267 59.5513 121.4 59.6686 121.528C59.7966 121.656 59.9246 121.779 60.0526 121.896C60.2126 121.811 60.3833 121.715 60.5646 121.608C60.746 121.491 60.9113 121.363 61.0606 121.224C61.2206 121.075 61.3486 120.915 61.4446 120.744C61.5406 120.574 61.5886 120.382 61.5886 120.168C61.5886 119.859 61.466 119.608 61.2206 119.416C60.9753 119.214 60.682 119.112 60.3406 119.112ZM59.5726 123.912C59.3806 124.03 59.194 124.152 59.0126 124.28C58.8313 124.398 58.666 124.531 58.5166 124.68C58.3673 124.83 58.2446 125 58.1486 125.192C58.0633 125.384 58.0206 125.603 58.0206 125.848C58.0206 126.094 58.0686 126.323 58.1646 126.536C58.2606 126.75 58.3886 126.931 58.5486 127.08C58.7193 127.23 58.9113 127.347 59.1246 127.432C59.338 127.518 59.5673 127.56 59.8126 127.56C60.25 127.56 60.634 127.443 60.9646 127.208C61.2953 126.974 61.6046 126.718 61.8926 126.44L59.5726 123.912ZM72.9984 117.672H80.3104V119.496H75.0144V122.472H80.0064V124.296H75.0144V129H72.9984V117.672ZM83.5459 125.832C83.6099 126.408 83.8339 126.856 84.2179 127.176C84.6019 127.496 85.0659 127.656 85.6099 127.656C86.0899 127.656 86.4899 127.56 86.8099 127.368C87.1405 127.166 87.4285 126.915 87.6739 126.616L89.0499 127.656C88.6019 128.211 88.1005 128.606 87.5459 128.84C86.9912 129.075 86.4099 129.192 85.8019 129.192C85.2259 129.192 84.6819 129.096 84.1699 128.904C83.6579 128.712 83.2152 128.44 82.8419 128.088C82.4685 127.736 82.1699 127.315 81.9459 126.824C81.7325 126.323 81.6259 125.768 81.6259 125.16C81.6259 124.552 81.7325 124.003 81.9459 123.512C82.1699 123.011 82.4685 122.584 82.8419 122.232C83.2152 121.88 83.6579 121.608 84.1699 121.416C84.6819 121.224 85.2259 121.128 85.8019 121.128C86.3352 121.128 86.8205 121.224 87.2579 121.416C87.7059 121.598 88.0845 121.864 88.3939 122.216C88.7139 122.568 88.9592 123.006 89.1299 123.528C89.3112 124.04 89.4019 124.632 89.4019 125.304V125.832H83.5459ZM87.4819 124.392C87.4712 123.827 87.2952 123.384 86.9539 123.064C86.6125 122.734 86.1379 122.568 85.5299 122.568C84.9539 122.568 84.4952 122.734 84.1539 123.064C83.8232 123.395 83.6205 123.838 83.5459 124.392H87.4819ZM92.7334 125.832C92.7974 126.408 93.0214 126.856 93.4054 127.176C93.7894 127.496 94.2534 127.656 94.7974 127.656C95.2774 127.656 95.6774 127.56 95.9974 127.368C96.328 127.166 96.616 126.915 96.8614 126.616L98.2374 127.656C97.7894 128.211 97.288 128.606 96.7334 128.84C96.1787 129.075 95.5974 129.192 94.9894 129.192C94.4134 129.192 93.8694 129.096 93.3574 128.904C92.8454 128.712 92.4027 128.44 92.0294 128.088C91.656 127.736 91.3574 127.315 91.1334 126.824C90.92 126.323 90.8134 125.768 90.8134 125.16C90.8134 124.552 90.92 124.003 91.1334 123.512C91.3574 123.011 91.656 122.584 92.0294 122.232C92.4027 121.88 92.8454 121.608 93.3574 121.416C93.8694 121.224 94.4134 121.128 94.9894 121.128C95.5227 121.128 96.008 121.224 96.4454 121.416C96.8934 121.598 97.272 121.864 97.5814 122.216C97.9014 122.568 98.1467 123.006 98.3174 123.528C98.4987 124.04 98.5894 124.632 98.5894 125.304V125.832H92.7334ZM96.6694 124.392C96.6587 123.827 96.4827 123.384 96.1414 123.064C95.8 122.734 95.3254 122.568 94.7174 122.568C94.1414 122.568 93.6827 122.734 93.3414 123.064C93.0107 123.395 92.808 123.838 92.7334 124.392H96.6694ZM104.481 123.448C104.108 122.926 103.606 122.664 102.977 122.664C102.721 122.664 102.47 122.728 102.225 122.856C101.98 122.984 101.857 123.192 101.857 123.48C101.857 123.715 101.958 123.886 102.161 123.992C102.364 124.099 102.62 124.19 102.929 124.264C103.238 124.339 103.569 124.419 103.921 124.504C104.284 124.579 104.62 124.702 104.929 124.872C105.238 125.032 105.494 125.256 105.697 125.544C105.9 125.832 106.001 126.227 106.001 126.728C106.001 127.187 105.9 127.576 105.697 127.896C105.505 128.206 105.249 128.456 104.929 128.648C104.62 128.84 104.268 128.979 103.873 129.064C103.478 129.15 103.084 129.192 102.689 129.192C102.092 129.192 101.542 129.107 101.041 128.936C100.54 128.766 100.092 128.456 99.6969 128.008L100.977 126.808C101.222 127.086 101.484 127.315 101.761 127.496C102.049 127.667 102.396 127.752 102.801 127.752C102.94 127.752 103.084 127.736 103.233 127.704C103.382 127.672 103.521 127.619 103.649 127.544C103.777 127.47 103.878 127.379 103.953 127.272C104.038 127.155 104.081 127.022 104.081 126.872C104.081 126.606 103.98 126.408 103.777 126.28C103.574 126.152 103.318 126.051 103.009 125.976C102.7 125.891 102.364 125.816 102.001 125.752C101.649 125.678 101.318 125.566 101.009 125.416C100.7 125.256 100.444 125.038 100.241 124.76C100.038 124.483 99.9369 124.099 99.9369 123.608C99.9369 123.182 100.022 122.814 100.193 122.504C100.374 122.184 100.609 121.923 100.897 121.72C101.185 121.518 101.516 121.368 101.889 121.272C102.262 121.176 102.641 121.128 103.025 121.128C103.537 121.128 104.044 121.219 104.545 121.4C105.046 121.571 105.452 121.87 105.761 122.296L104.481 123.448ZM112.085 126.968L116.485 122.712C116.613 122.584 116.746 122.451 116.885 122.312C117.023 122.163 117.146 122.008 117.253 121.848C117.37 121.688 117.466 121.523 117.541 121.352C117.615 121.171 117.653 120.984 117.653 120.792C117.653 120.558 117.605 120.35 117.509 120.168C117.423 119.987 117.306 119.832 117.157 119.704C117.007 119.576 116.831 119.48 116.629 119.416C116.437 119.342 116.229 119.304 116.005 119.304C115.525 119.304 115.13 119.443 114.821 119.72C114.511 119.998 114.325 120.371 114.261 120.84L112.245 120.68C112.287 120.158 112.41 119.699 112.613 119.304C112.826 118.899 113.098 118.563 113.429 118.296C113.759 118.03 114.143 117.827 114.581 117.688C115.018 117.55 115.493 117.48 116.005 117.48C116.517 117.48 116.991 117.55 117.429 117.688C117.877 117.816 118.266 118.014 118.597 118.28C118.927 118.536 119.189 118.867 119.381 119.272C119.573 119.678 119.669 120.152 119.669 120.696C119.669 121.411 119.503 122.03 119.173 122.552C118.853 123.064 118.437 123.555 117.925 124.024L114.421 127.272H119.669V129H112.085V126.968ZM121.249 123.336C121.249 122.44 121.319 121.678 121.457 121.048C121.607 120.408 121.799 119.875 122.033 119.448C122.268 119.011 122.529 118.664 122.817 118.408C123.116 118.142 123.415 117.944 123.713 117.816C124.023 117.678 124.316 117.587 124.593 117.544C124.881 117.502 125.132 117.48 125.345 117.48C125.559 117.48 125.804 117.502 126.081 117.544C126.369 117.587 126.663 117.678 126.961 117.816C127.271 117.944 127.569 118.142 127.857 118.408C128.156 118.664 128.423 119.011 128.657 119.448C128.892 119.875 129.079 120.408 129.217 121.048C129.367 121.678 129.441 122.44 129.441 123.336C129.441 124.232 129.367 125 129.217 125.64C129.079 126.27 128.892 126.803 128.657 127.24C128.423 127.667 128.156 128.014 127.857 128.28C127.569 128.536 127.271 128.734 126.961 128.872C126.663 129 126.369 129.086 126.081 129.128C125.804 129.171 125.559 129.192 125.345 129.192C125.132 129.192 124.881 129.171 124.593 129.128C124.316 129.086 124.023 129 123.713 128.872C123.415 128.734 123.116 128.536 122.817 128.28C122.529 128.014 122.268 127.667 122.033 127.24C121.799 126.803 121.607 126.27 121.457 125.64C121.319 125 121.249 124.232 121.249 123.336ZM123.169 123.336C123.169 123.688 123.191 124.099 123.233 124.568C123.287 125.027 123.388 125.464 123.537 125.88C123.687 126.296 123.905 126.648 124.193 126.936C124.481 127.224 124.865 127.368 125.345 127.368C125.825 127.368 126.209 127.224 126.497 126.936C126.785 126.648 127.004 126.296 127.153 125.88C127.303 125.464 127.399 125.027 127.441 124.568C127.495 124.099 127.521 123.688 127.521 123.336C127.521 122.984 127.495 122.579 127.441 122.12C127.399 121.651 127.303 121.208 127.153 120.792C127.004 120.376 126.785 120.024 126.497 119.736C126.209 119.448 125.825 119.304 125.345 119.304C124.865 119.304 124.481 119.448 124.193 119.736C123.905 120.024 123.687 120.376 123.537 120.792C123.388 121.208 123.287 121.651 123.233 122.12C123.191 122.579 123.169 122.984 123.169 123.336ZM131.022 126.968L135.422 122.712C135.55 122.584 135.683 122.451 135.822 122.312C135.961 122.163 136.083 122.008 136.19 121.848C136.307 121.688 136.403 121.523 136.478 121.352C136.553 121.171 136.59 120.984 136.59 120.792C136.59 120.558 136.542 120.35 136.446 120.168C136.361 119.987 136.243 119.832 136.094 119.704C135.945 119.576 135.769 119.48 135.566 119.416C135.374 119.342 135.166 119.304 134.942 119.304C134.462 119.304 134.067 119.443 133.758 119.72C133.449 119.998 133.262 120.371 133.198 120.84L131.182 120.68C131.225 120.158 131.347 119.699 131.55 119.304C131.763 118.899 132.035 118.563 132.366 118.296C132.697 118.03 133.081 117.827 133.518 117.688C133.955 117.55 134.43 117.48 134.942 117.48C135.454 117.48 135.929 117.55 136.366 117.688C136.814 117.816 137.203 118.014 137.534 118.28C137.865 118.536 138.126 118.867 138.318 119.272C138.51 119.678 138.606 120.152 138.606 120.696C138.606 121.411 138.441 122.03 138.11 122.552C137.79 123.064 137.374 123.555 136.862 124.024L133.358 127.272H138.606V129H131.022V126.968ZM140.491 126.968L144.891 122.712C145.019 122.584 145.152 122.451 145.291 122.312C145.43 122.163 145.552 122.008 145.659 121.848C145.776 121.688 145.872 121.523 145.947 121.352C146.022 121.171 146.059 120.984 146.059 120.792C146.059 120.558 146.011 120.35 145.915 120.168C145.83 119.987 145.712 119.832 145.563 119.704C145.414 119.576 145.238 119.48 145.035 119.416C144.843 119.342 144.635 119.304 144.411 119.304C143.931 119.304 143.536 119.443 143.227 119.72C142.918 119.998 142.731 120.371 142.667 120.84L140.651 120.68C140.694 120.158 140.816 119.699 141.019 119.304C141.232 118.899 141.504 118.563 141.835 118.296C142.166 118.03 142.55 117.827 142.987 117.688C143.424 117.55 143.899 117.48 144.411 117.48C144.923 117.48 145.398 117.55 145.835 117.688C146.283 117.816 146.672 118.014 147.003 118.28C147.334 118.536 147.595 118.867 147.787 119.272C147.979 119.678 148.075 120.152 148.075 120.696C148.075 121.411 147.91 122.03 147.579 122.552C147.259 123.064 146.843 123.555 146.331 124.024L142.827 127.272H148.075V129H140.491V126.968ZM157.016 125.832H149.016V124.296H157.016V125.832ZM157.96 126.968L162.36 122.712C162.488 122.584 162.621 122.451 162.76 122.312C162.898 122.163 163.021 122.008 163.128 121.848C163.245 121.688 163.341 121.523 163.416 121.352C163.49 121.171 163.528 120.984 163.528 120.792C163.528 120.558 163.48 120.35 163.384 120.168C163.298 119.987 163.181 119.832 163.032 119.704C162.882 119.576 162.706 119.48 162.504 119.416C162.312 119.342 162.104 119.304 161.88 119.304C161.4 119.304 161.005 119.443 160.696 119.72C160.386 119.998 160.2 120.371 160.136 120.84L158.12 120.68C158.162 120.158 158.285 119.699 158.488 119.304C158.701 118.899 158.973 118.563 159.304 118.296C159.634 118.03 160.018 117.827 160.456 117.688C160.893 117.55 161.368 117.48 161.88 117.48C162.392 117.48 162.866 117.55 163.304 117.688C163.752 117.816 164.141 118.014 164.472 118.28C164.802 118.536 165.064 118.867 165.256 119.272C165.448 119.678 165.544 120.152 165.544 120.696C165.544 121.411 165.378 122.03 165.048 122.552C164.728 123.064 164.312 123.555 163.8 124.024L160.296 127.272H165.544V129H157.96V126.968ZM167.124 123.336C167.124 122.44 167.194 121.678 167.332 121.048C167.482 120.408 167.674 119.875 167.908 119.448C168.143 119.011 168.404 118.664 168.692 118.408C168.991 118.142 169.29 117.944 169.588 117.816C169.898 117.678 170.191 117.587 170.468 117.544C170.756 117.502 171.007 117.48 171.22 117.48C171.434 117.48 171.679 117.502 171.956 117.544C172.244 117.587 172.538 117.678 172.836 117.816C173.146 117.944 173.444 118.142 173.732 118.408C174.031 118.664 174.298 119.011 174.532 119.448C174.767 119.875 174.954 120.408 175.092 121.048C175.242 121.678 175.316 122.44 175.316 123.336C175.316 124.232 175.242 125 175.092 125.64C174.954 126.27 174.767 126.803 174.532 127.24C174.298 127.667 174.031 128.014 173.732 128.28C173.444 128.536 173.146 128.734 172.836 128.872C172.538 129 172.244 129.086 171.956 129.128C171.679 129.171 171.434 129.192 171.22 129.192C171.007 129.192 170.756 129.171 170.468 129.128C170.191 129.086 169.898 129 169.588 128.872C169.29 128.734 168.991 128.536 168.692 128.28C168.404 128.014 168.143 127.667 167.908 127.24C167.674 126.803 167.482 126.27 167.332 125.64C167.194 125 167.124 124.232 167.124 123.336ZM169.044 123.336C169.044 123.688 169.066 124.099 169.108 124.568C169.162 125.027 169.263 125.464 169.412 125.88C169.562 126.296 169.78 126.648 170.068 126.936C170.356 127.224 170.74 127.368 171.22 127.368C171.7 127.368 172.084 127.224 172.372 126.936C172.66 126.648 172.879 126.296 173.028 125.88C173.178 125.464 173.274 125.027 173.316 124.568C173.37 124.099 173.396 123.688 173.396 123.336C173.396 122.984 173.37 122.579 173.316 122.12C173.274 121.651 173.178 121.208 173.028 120.792C172.879 120.376 172.66 120.024 172.372 119.736C172.084 119.448 171.7 119.304 171.22 119.304C170.74 119.304 170.356 119.448 170.068 119.736C169.78 120.024 169.562 120.376 169.412 120.792C169.263 121.208 169.162 121.651 169.108 122.12C169.066 122.579 169.044 122.984 169.044 123.336ZM176.897 126.968L181.297 122.712C181.425 122.584 181.558 122.451 181.697 122.312C181.836 122.163 181.958 122.008 182.065 121.848C182.182 121.688 182.278 121.523 182.353 121.352C182.428 121.171 182.465 120.984 182.465 120.792C182.465 120.558 182.417 120.35 182.321 120.168C182.236 119.987 182.118 119.832 181.969 119.704C181.82 119.576 181.644 119.48 181.441 119.416C181.249 119.342 181.041 119.304 180.817 119.304C180.337 119.304 179.942 119.443 179.633 119.72C179.324 119.998 179.137 120.371 179.073 120.84L177.057 120.68C177.1 120.158 177.222 119.699 177.425 119.304C177.638 118.899 177.91 118.563 178.241 118.296C178.572 118.03 178.956 117.827 179.393 117.688C179.83 117.55 180.305 117.48 180.817 117.48C181.329 117.48 181.804 117.55 182.241 117.688C182.689 117.816 183.078 118.014 183.409 118.28C183.74 118.536 184.001 118.867 184.193 119.272C184.385 119.678 184.481 120.152 184.481 120.696C184.481 121.411 184.316 122.03 183.985 122.552C183.665 123.064 183.249 123.555 182.737 124.024L179.233 127.272H184.481V129H176.897V126.968ZM188.974 122.232H189.47C189.747 122.232 190.014 122.216 190.27 122.184C190.537 122.152 190.771 122.083 190.974 121.976C191.187 121.87 191.358 121.715 191.486 121.512C191.614 121.31 191.678 121.038 191.678 120.696C191.678 120.259 191.529 119.902 191.23 119.624C190.931 119.347 190.542 119.208 190.062 119.208C189.678 119.208 189.331 119.32 189.022 119.544C188.723 119.758 188.505 120.062 188.366 120.456L186.334 119.912C186.462 119.496 186.643 119.134 186.878 118.824C187.113 118.515 187.39 118.264 187.71 118.072C188.03 117.87 188.382 117.72 188.766 117.624C189.15 117.528 189.55 117.48 189.966 117.48C190.457 117.48 190.921 117.544 191.358 117.672C191.795 117.8 192.179 117.992 192.51 118.248C192.841 118.494 193.102 118.808 193.294 119.192C193.497 119.566 193.598 120.003 193.598 120.504C193.598 121.112 193.427 121.656 193.086 122.136C192.745 122.606 192.27 122.915 191.662 123.064V123.096C192.387 123.203 192.937 123.512 193.31 124.024C193.683 124.536 193.87 125.144 193.87 125.848C193.87 126.392 193.763 126.872 193.55 127.288C193.347 127.704 193.07 128.056 192.718 128.344C192.366 128.622 191.955 128.835 191.486 128.984C191.027 129.123 190.547 129.192 190.046 129.192C189.577 129.192 189.134 129.139 188.718 129.032C188.302 128.936 187.923 128.782 187.582 128.568C187.251 128.355 186.963 128.083 186.718 127.752C186.473 127.411 186.286 127.006 186.158 126.536L188.206 125.992C188.323 126.462 188.531 126.824 188.83 127.08C189.129 127.336 189.534 127.464 190.046 127.464C190.302 127.464 190.542 127.422 190.766 127.336C191.001 127.251 191.203 127.134 191.374 126.984C191.555 126.824 191.694 126.638 191.79 126.424C191.897 126.2 191.95 125.955 191.95 125.688C191.95 125.326 191.87 125.032 191.71 124.808C191.561 124.574 191.363 124.398 191.118 124.28C190.883 124.152 190.617 124.067 190.318 124.024C190.019 123.982 189.726 123.96 189.438 123.96H188.974V122.232Z" fill="#2E2E2E"/>
<a href="https://www.rism.ac.th/wp-content/uploads/2022/02/Tuition-Fees-2022-2023.pdf">
<rect fill="black" fill-opacity="0" y="1.072" width="194.894" height="21.856"/>
</a>
<path d="M211.833 119.625L216 124M216 124L211.833 128.375M216 124L206 124" stroke="#2E2E2E" stroke-width="2" stroke-linecap="round" stroke-linejoin="round"/>
</svg>
