<svg width="34" height="32" viewBox="0 0 34 32" fill="none" xmlns="http://www.w3.org/2000/svg">
<path d="M25.0506 0.0244141H8.8267C4.34457 0.0244141 0.698242 3.67181 0.698242 8.15527V23.0021C0.698242 27.4856 4.34457 31.133 8.8267 31.133H25.0506C29.5327 31.133 33.179 27.4856 33.179 23.0021V8.15527C33.179 3.67181 29.5327 0.0244141 25.0506 0.0244141ZM3.56571 8.15527C3.56571 5.25388 5.92617 2.89272 8.8267 2.89272H25.0506C27.9511 2.89272 30.3116 5.25388 30.3116 8.15527V23.0021C30.3116 25.9035 27.9511 28.2647 25.0506 28.2647H8.8267C5.92617 28.2647 3.56571 25.9035 3.56571 23.0021V8.15527Z" fill="#416BA9"/>
<path d="M16.9387 23.1398C21.1067 23.1398 24.4995 19.7478 24.4995 15.5767C24.4995 11.4057 21.1085 8.01367 16.9387 8.01367C12.7688 8.01367 9.37781 11.4057 9.37781 15.5767C9.37781 19.7478 12.7688 23.1398 16.9387 23.1398ZM16.9387 10.8838C19.5269 10.8838 21.632 12.9896 21.632 15.5786C21.632 18.1676 19.5269 20.2733 16.9387 20.2733C14.3504 20.2733 12.2453 18.1676 12.2453 15.5786C12.2453 12.9896 14.3504 10.8838 16.9387 10.8838Z" fill="#416BA9"/>
<path d="M25.1994 9.2357C26.3218 9.2357 27.2366 8.32247 27.2366 7.19793C27.2366 6.07339 26.3236 5.16016 25.1994 5.16016C24.0752 5.16016 23.1622 6.07339 23.1622 7.19793C23.1622 8.32247 24.0752 9.2357 25.1994 9.2357Z" fill="#416BA9"/>
</svg>
