<svg width="31" height="30" viewBox="0 0 31 30" fill="none" xmlns="http://www.w3.org/2000/svg">
<rect y="0.00390625" width="30.1903" height="30" rx="4" fill="#416BA9"/>
<path d="M8.49757 10.7746C8.16526 10.466 8 10.0841 8 9.6297C8 9.17529 8.16614 8.77658 8.49757 8.46715C8.82988 8.15862 9.25764 8.00391 9.78174 8.00391C10.3058 8.00391 10.7168 8.15862 11.0482 8.46715C11.3805 8.77569 11.5458 9.1638 11.5458 9.6297C11.5458 10.0956 11.3797 10.466 11.0482 10.7746C10.7159 11.0831 10.2943 11.2378 9.78174 11.2378C9.26913 11.2378 8.82988 11.0831 8.49757 10.7746ZM11.2665 12.5444V22.0039H8.27839V12.5444H11.2665Z" fill="#E5E9EF"/>
<path d="M21.2137 13.4788C21.865 14.1861 22.1903 15.1568 22.1903 16.3927V21.8368H19.3524V16.7764C19.3524 16.1531 19.1907 15.6687 18.8681 15.3239C18.5455 14.9791 18.1107 14.8058 17.5663 14.8058C17.0218 14.8058 16.587 14.9782 16.2644 15.3239C15.9418 15.6687 15.7801 16.1531 15.7801 16.7764V21.8368H12.9254V12.5179H15.7801V13.7538C16.0691 13.3418 16.4589 13.0165 16.9485 12.7769C17.4381 12.5373 17.9887 12.418 18.6012 12.418C19.6918 12.418 20.5632 12.7716 21.2137 13.478V13.4788Z" fill="#E5E9EF"/>
</svg>
