<svg width="43" height="31" viewBox="0 0 43 31" fill="none" xmlns="http://www.w3.org/2000/svg">
<path d="M41.4118 4.74706C40.9254 2.87844 39.4921 1.40698 37.6722 0.907587C34.3741 0 21.1478 0 21.1478 0C21.1478 0 7.92154 0 4.6232 0.907587C2.80329 1.40698 1.37004 2.87844 0.883643 4.74706C0 8.13372 0 15.2 0 15.2C0 15.2 0 22.266 0.883643 25.6529C1.37004 27.5216 2.80329 28.993 4.6232 29.4927C7.92154 30.4 21.1478 30.4 21.1478 30.4C21.1478 30.4 34.3741 30.4 37.6722 29.4927C39.4921 28.993 40.9254 27.5216 41.4118 25.6529C42.2957 22.266 42.2957 15.2 42.2957 15.2C42.2957 15.2 42.2957 8.13372 41.4118 4.74706Z" fill="#416BA9"/>
<path d="M17.1836 22.4695V9.25214L27.7575 15.8611L17.1836 22.4695Z" fill="#E5E9EF"/>
</svg>
