<svg width="16" height="15" viewBox="0 0 16 15" fill="none" xmlns="http://www.w3.org/2000/svg">
<path d="M7.69973 0.599976C3.61973 0.599976 0.299805 3.27445 0.299805 6.56185C0.299805 9.50898 2.93242 11.9771 6.48854 12.4439C6.72956 12.4954 7.05754 12.6016 7.14053 12.8061C7.21514 12.9919 7.18933 13.2828 7.16436 13.4704C7.16436 13.4704 7.07754 13.9888 7.05882 14.0993C7.02661 14.285 6.91015 14.8257 7.69973 14.4953C8.4896 14.1649 11.9615 12.004 13.514 10.2299C14.5861 9.06239 15.0998 7.87754 15.0998 6.56185C15.0998 3.27445 11.7803 0.599976 7.69973 0.599976Z" fill="white"/>
<path d="M5.64294 5C5.56409 5 5.5 5.06616 5.5 5.14744V8.45256C5.5 8.53399 5.56409 8.6 5.64294 8.6H6.1572C6.23605 8.6 6.3 8.53399 6.3 8.45256V5.14744C6.3 5.06616 6.23605 5 6.1572 5H5.64294Z" fill="#1C355E"/>
<path d="M9.74938 5H9.20801C9.12501 5 9.05769 5.06616 9.05769 5.14744V7.11103L7.51657 5.06558C7.51302 5.06034 7.50903 5.0554 7.50489 5.0506L7.50385 5.04973C7.50089 5.04638 7.49793 5.04348 7.49482 5.04057C7.49394 5.0397 7.49305 5.03897 7.49201 5.0381C7.4895 5.03577 7.48683 5.03359 7.48402 5.03155C7.48284 5.03039 7.48151 5.02952 7.48018 5.0285C7.47751 5.02676 7.475 5.02486 7.47234 5.02327C7.47086 5.02225 7.46938 5.02137 7.46775 5.02065C7.46509 5.01905 7.46242 5.01745 7.45976 5.01614C7.45813 5.01541 7.45665 5.01454 7.45502 5.01396C7.45221 5.01265 7.4494 5.01134 7.44644 5.01032C7.44467 5.00974 7.44319 5.00916 7.44156 5.00858C7.4386 5.00756 7.43564 5.00654 7.43253 5.00582C7.43091 5.00523 7.42913 5.00494 7.42736 5.00436C7.4244 5.00378 7.42159 5.00305 7.41877 5.00247C7.4167 5.00218 7.41448 5.00189 7.41241 5.00174C7.40975 5.00116 7.40709 5.00102 7.40442 5.00073C7.40191 5.00044 7.39939 5.00044 7.39673 5.00029C7.39481 5.00029 7.39333 5 7.3914 5H6.85018C6.76718 5 6.69971 5.06616 6.69971 5.14744V8.45256C6.69971 8.53399 6.76718 8.6 6.85018 8.6H7.3914C7.47455 8.6 7.54187 8.53399 7.54187 8.45256V6.48955L9.08491 8.53762C9.09556 8.55245 9.10873 8.56452 9.12308 8.57412C9.12353 8.57441 9.12412 8.57484 9.12456 8.57528C9.12767 8.57717 9.13078 8.57906 9.13388 8.58081C9.13536 8.58168 9.1367 8.58226 9.13818 8.58299C9.1404 8.5843 9.14291 8.58546 9.14528 8.58648C9.14779 8.58749 9.15001 8.58851 9.15268 8.58953C9.15416 8.59011 9.15563 8.59069 9.15711 8.59113C9.16067 8.59244 9.16392 8.59346 9.16732 8.59447C9.16806 8.59447 9.1688 8.59477 9.16954 8.59491C9.18182 8.59811 9.19469 8.6 9.20801 8.6H9.74938C9.83253 8.6 9.89971 8.53399 9.89971 8.45256V5.14744C9.89971 5.06616 9.83253 5 9.74938 5Z" fill="#1C355E"/>
<path d="M4.95352 7.77237H3.52018V5.14773C3.52018 5.06616 3.45458 5 3.37385 5H2.84618C2.7653 5 2.69971 5.06616 2.69971 5.14773V8.45213V8.45242C2.69971 8.49211 2.71542 8.52803 2.74065 8.55449C2.74123 8.55522 2.7418 8.55594 2.74267 8.55667C2.74339 8.5574 2.74411 8.55798 2.74483 8.55871C2.77122 8.5843 2.80668 8.6 2.84604 8.6H4.95352C5.0344 8.6 5.09971 8.5337 5.09971 8.45213V7.9201C5.09971 7.83853 5.0344 7.77237 4.95352 7.77237Z" fill="#1C355E"/>
<path d="M12.5536 5.82763C12.6345 5.82763 12.6998 5.76161 12.6998 5.6799V5.14787C12.6998 5.0663 12.6345 5 12.5536 5H10.4463H10.446C10.4065 5 10.3709 5.01599 10.3445 5.04173C10.3439 5.04231 10.3432 5.04275 10.3428 5.04333C10.3419 5.0442 10.3412 5.04507 10.3405 5.04595C10.3154 5.07241 10.2998 5.10818 10.2998 5.14773V5.14787V8.45227V8.45242C10.2998 8.49211 10.3155 8.52803 10.3407 8.55449C10.3413 8.55522 10.342 8.55609 10.3428 8.55667C10.3433 8.5574 10.3442 8.55812 10.3449 8.55871C10.3712 8.58415 10.4068 8.6 10.446 8.6H12.5536C12.6345 8.6 12.6998 8.5337 12.6998 8.45227V7.9201C12.6998 7.83868 12.6345 7.77237 12.5536 7.77237H11.1204V7.21374H12.5536C12.6345 7.21374 12.6998 7.14758 12.6998 7.06601V6.53399C12.6998 6.45242 12.6345 6.38611 12.5536 6.38611H11.1204V5.82763H12.5536Z" fill="#1C355E"/>
</svg>
