<svg width="607" height="145" viewBox="0 0 607 145" fill="none" xmlns="http://www.w3.org/2000/svg">
<rect x="0.962891" y="0.5" width="605" height="144" rx="23.5" stroke="#2E2E2E"/>
<path d="M0.462891 24C0.462891 10.7452 11.2081 0 24.4629 0H335.463V145H24.4629C11.2081 145 0.462891 134.255 0.462891 121V24Z" fill="#1C355E"/>
<path fill-rule="evenodd" clip-rule="evenodd" d="M56.6514 53.188C59.6518 50.1884 63.7208 48.5034 67.9634 48.5034C72.206 48.5034 76.2749 50.1884 79.2754 53.188L83.9634 57.872L88.6514 53.188C90.1273 51.6598 91.8928 50.4409 93.8449 49.6023C95.797 48.7638 97.8965 48.3224 100.021 48.3039C102.145 48.2855 104.252 48.6903 106.219 49.4948C108.185 50.2993 109.971 51.4874 111.474 52.9896C112.976 54.4919 114.164 56.2783 114.969 58.2447C115.773 60.211 116.178 62.3179 116.159 64.4424C116.141 66.5668 115.7 68.6664 114.861 70.6184C114.022 72.5705 112.804 74.336 111.275 75.812L83.9634 103.128L56.6514 75.812C53.6518 72.8115 51.9668 68.7426 51.9668 64.5C51.9668 60.2573 53.6518 56.1884 56.6514 53.188V53.188Z" stroke="white" stroke-width="4" stroke-linejoin="round"/>
<path d="M135.439 34.3H139.399V44.56H143.647V34.3H147.607V59.5H143.647V48.16H139.399V59.5H135.439V34.3ZM150.556 34.3H161.356V37.9H154.516V44.56H159.952V48.16H154.516V55.9H161.356V59.5H150.556V34.3ZM166.694 34.3H172.058L176.162 59.5H172.202L171.482 54.496V54.568H166.982L166.262 59.5H162.59L166.694 34.3ZM171.014 51.148L169.25 38.692H169.178L167.45 51.148H171.014ZM178.083 34.3H183.951C185.991 34.3 187.479 34.78 188.415 35.74C189.351 36.676 189.819 38.128 189.819 40.096V41.644C189.819 44.26 188.955 45.916 187.227 46.612V46.684C188.187 46.972 188.859 47.56 189.243 48.448C189.651 49.336 189.855 50.524 189.855 52.012V56.44C189.855 57.16 189.879 57.748 189.927 58.204C189.975 58.636 190.095 59.068 190.287 59.5H186.255C186.111 59.092 186.015 58.708 185.967 58.348C185.919 57.988 185.895 57.34 185.895 56.404V51.796C185.895 50.644 185.703 49.84 185.319 49.384C184.959 48.928 184.323 48.7 183.411 48.7H182.043V59.5H178.083V34.3ZM183.483 45.1C184.275 45.1 184.863 44.896 185.247 44.488C185.655 44.08 185.859 43.396 185.859 42.436V40.492C185.859 39.58 185.691 38.92 185.355 38.512C185.043 38.104 184.539 37.9 183.843 37.9H182.043V45.1H183.483ZM195.629 37.9H191.489V34.3H203.729V37.9H199.589V59.5H195.629V37.9ZM141.415 109.3C139.423 109.3 137.995 108.88 137.131 108.04C136.291 107.2 135.871 105.784 135.871 103.792V86.008C135.871 84.016 136.291 82.6 137.131 81.76C137.995 80.92 139.423 80.5 141.415 80.5H142.639V83.74H141.667C141.019 83.74 140.551 83.908 140.263 84.244C139.975 84.556 139.831 85.144 139.831 86.008V103.792C139.831 104.656 139.975 105.256 140.263 105.592C140.551 105.904 141.019 106.06 141.667 106.06H142.639V109.3H141.415ZM144.696 82.3H148.692L151.284 101.848H151.356L153.948 82.3H157.584L153.768 107.5H148.512L144.696 82.3ZM161.526 82.3H166.89L170.994 107.5H167.034L166.314 102.496V102.568H161.814L161.094 107.5H157.422L161.526 82.3ZM165.846 99.148L164.082 86.692H164.01L162.282 99.148H165.846ZM172.915 82.3H176.875V103.9H183.391V107.5H172.915V82.3ZM191.05 107.86C189.13 107.86 187.666 107.32 186.658 106.24C185.65 105.136 185.146 103.564 185.146 101.524V82.3H189.106V101.812C189.106 102.676 189.274 103.3 189.61 103.684C189.97 104.068 190.474 104.26 191.122 104.26C191.77 104.26 192.262 104.068 192.598 103.684C192.958 103.3 193.138 102.676 193.138 101.812V82.3H196.954V101.524C196.954 103.564 196.45 105.136 195.442 106.24C194.434 107.32 192.97 107.86 191.05 107.86ZM199.775 82.3H210.575V85.9H203.735V92.56H209.171V96.16H203.735V103.9H210.575V107.5H199.775V82.3ZM218.071 107.86C216.151 107.86 214.699 107.32 213.715 106.24C212.731 105.136 212.239 103.564 212.239 101.524V100.084H215.983V101.812C215.983 103.444 216.667 104.26 218.035 104.26C218.707 104.26 219.211 104.068 219.547 103.684C219.907 103.276 220.087 102.628 220.087 101.74C220.087 100.684 219.847 99.76 219.367 98.968C218.887 98.152 217.999 97.18 216.703 96.052C215.071 94.612 213.931 93.316 213.283 92.164C212.635 90.988 212.311 89.668 212.311 88.204C212.311 86.212 212.815 84.676 213.823 83.596C214.831 82.492 216.295 81.94 218.215 81.94C220.111 81.94 221.539 82.492 222.499 83.596C223.483 84.676 223.975 86.236 223.975 88.276V89.32H220.231V88.024C220.231 87.16 220.063 86.536 219.727 86.152C219.391 85.744 218.899 85.54 218.251 85.54C216.931 85.54 216.271 86.344 216.271 87.952C216.271 88.864 216.511 89.716 216.991 90.508C217.495 91.3 218.395 92.26 219.691 93.388C221.347 94.828 222.487 96.136 223.111 97.312C223.735 98.488 224.047 99.868 224.047 101.452C224.047 103.516 223.531 105.1 222.499 106.204C221.491 107.308 220.015 107.86 218.071 107.86ZM226.102 106.06H227.074C227.722 106.06 228.19 105.904 228.478 105.592C228.766 105.256 228.91 104.656 228.91 103.792V86.008C228.91 85.144 228.766 84.556 228.478 84.244C228.19 83.908 227.722 83.74 227.074 83.74H226.102V80.5H227.326C229.318 80.5 230.734 80.92 231.574 81.76C232.438 82.6 232.87 84.016 232.87 86.008V103.792C232.87 105.784 232.438 107.2 231.574 108.04C230.734 108.88 229.318 109.3 227.326 109.3H226.102V106.06Z" fill="white"/>
<path d="M382.465 37.8C381.825 37.8 381.278 37.58 380.825 37.14C380.385 36.6867 380.165 36.14 380.165 35.5C380.165 34.86 380.385 34.32 380.825 33.88C381.278 33.4267 381.825 33.2 382.465 33.2C383.105 33.2 383.645 33.4267 384.085 33.88C384.538 34.32 384.765 34.86 384.765 35.5C384.765 36.14 384.538 36.6867 384.085 37.14C383.645 37.58 383.105 37.8 382.465 37.8ZM398.283 28.5H404.283V30.5H400.483V34.2H403.503V36.2H400.483V40.5H404.283V42.5H398.283V28.5ZM405.549 28.5H408.689L410.089 38.52H410.129L411.529 28.5H414.669V42.5H412.589V31.9H412.549L410.949 42.5H409.109L407.509 31.9H407.469V42.5H405.549V28.5ZM416.31 28.5H419.63C420.764 28.5 421.59 28.7667 422.11 29.3C422.63 29.82 422.89 30.6267 422.89 31.72V32.28C422.89 33 422.77 33.5867 422.53 34.04C422.304 34.4933 421.95 34.82 421.47 35.02V35.06C422.564 35.4333 423.11 36.4067 423.11 37.98V39.18C423.11 40.26 422.824 41.0867 422.25 41.66C421.69 42.22 420.864 42.5 419.77 42.5H416.31V28.5ZM419.37 34.2C419.81 34.2 420.137 34.0867 420.35 33.86C420.577 33.6333 420.69 33.2533 420.69 32.72V31.94C420.69 31.4333 420.597 31.0667 420.41 30.84C420.237 30.6133 419.957 30.5 419.57 30.5H418.51V34.2H419.37ZM419.77 40.5C420.157 40.5 420.444 40.4 420.63 40.2C420.817 39.9867 420.91 39.6267 420.91 39.12V37.9C420.91 37.26 420.797 36.82 420.57 36.58C420.357 36.3267 419.997 36.2 419.49 36.2H418.51V40.5H419.77ZM424.396 28.5H427.656C428.79 28.5 429.616 28.7667 430.136 29.3C430.656 29.82 430.916 30.6267 430.916 31.72V32.58C430.916 34.0333 430.436 34.9533 429.476 35.34V35.38C430.01 35.54 430.383 35.8667 430.596 36.36C430.823 36.8533 430.936 37.5133 430.936 38.34V40.8C430.936 41.2 430.95 41.5267 430.976 41.78C431.003 42.02 431.07 42.26 431.176 42.5H428.936C428.856 42.2733 428.803 42.06 428.776 41.86C428.75 41.66 428.736 41.3 428.736 40.78V38.22C428.736 37.58 428.63 37.1333 428.416 36.88C428.216 36.6267 427.863 36.5 427.356 36.5H426.596V42.5H424.396V28.5ZM427.396 34.5C427.836 34.5 428.163 34.3867 428.376 34.16C428.603 33.9333 428.716 33.5533 428.716 33.02V31.94C428.716 31.4333 428.623 31.0667 428.436 30.84C428.263 30.6133 427.983 30.5 427.596 30.5H426.596V34.5H427.396ZM434.163 28.5H437.143L439.423 42.5H437.223L436.823 39.72V39.76H434.323L433.923 42.5H431.883L434.163 28.5ZM436.563 37.86L435.583 30.94H435.543L434.583 37.86H436.563ZM443.551 42.7C442.498 42.7 441.691 42.4 441.131 41.8C440.584 41.2 440.311 40.3533 440.311 39.26V31.74C440.311 30.6467 440.584 29.8 441.131 29.2C441.691 28.6 442.498 28.3 443.551 28.3C444.604 28.3 445.404 28.6 445.951 29.2C446.511 29.8 446.791 30.6467 446.791 31.74V33.22H444.711V31.6C444.711 30.7333 444.344 30.3 443.611 30.3C442.878 30.3 442.511 30.7333 442.511 31.6V39.42C442.511 40.2733 442.878 40.7 443.611 40.7C444.344 40.7 444.711 40.2733 444.711 39.42V37.28H446.791V39.26C446.791 40.3533 446.511 41.2 445.951 41.8C445.404 42.4 444.604 42.7 443.551 42.7ZM448.107 28.5H454.107V30.5H450.307V34.2H453.327V36.2H450.307V40.5H454.107V42.5H448.107V28.5ZM458.576 28.5H461.936C463.029 28.5 463.849 28.7933 464.396 29.38C464.943 29.9667 465.216 30.8267 465.216 31.96V39.04C465.216 40.1733 464.943 41.0333 464.396 41.62C463.849 42.2067 463.029 42.5 461.936 42.5H458.576V28.5ZM461.896 40.5C462.256 40.5 462.529 40.3933 462.716 40.18C462.916 39.9667 463.016 39.62 463.016 39.14V31.86C463.016 31.38 462.916 31.0333 462.716 30.82C462.529 30.6067 462.256 30.5 461.896 30.5H460.776V40.5H461.896ZM466.701 28.5H468.901V42.5H466.701V28.5ZM469.969 28.5H472.189L473.629 39.36H473.669L475.109 28.5H477.129L475.009 42.5H472.089L469.969 28.5ZM478.185 28.5H484.185V30.5H480.385V34.2H483.405V36.2H480.385V40.5H484.185V42.5H478.185V28.5ZM485.451 28.5H488.711C489.844 28.5 490.671 28.7667 491.191 29.3C491.711 29.82 491.971 30.6267 491.971 31.72V32.58C491.971 34.0333 491.491 34.9533 490.531 35.34V35.38C491.064 35.54 491.438 35.8667 491.651 36.36C491.878 36.8533 491.991 37.5133 491.991 38.34V40.8C491.991 41.2 492.004 41.5267 492.031 41.78C492.058 42.02 492.124 42.26 492.231 42.5H489.991C489.911 42.2733 489.858 42.06 489.831 41.86C489.804 41.66 489.791 41.3 489.791 40.78V38.22C489.791 37.58 489.684 37.1333 489.471 36.88C489.271 36.6267 488.918 36.5 488.411 36.5H487.651V42.5H485.451V28.5ZM488.451 34.5C488.891 34.5 489.218 34.3867 489.431 34.16C489.658 33.9333 489.771 33.5533 489.771 33.02V31.94C489.771 31.4333 489.678 31.0667 489.491 30.84C489.318 30.6133 489.038 30.5 488.651 30.5H487.651V34.5H488.451ZM496.377 42.7C495.311 42.7 494.504 42.4 493.957 41.8C493.411 41.1867 493.137 40.3133 493.137 39.18V38.38H495.217V39.34C495.217 40.2467 495.597 40.7 496.357 40.7C496.731 40.7 497.011 40.5933 497.197 40.38C497.397 40.1533 497.497 39.7933 497.497 39.3C497.497 38.7133 497.364 38.2 497.097 37.76C496.831 37.3067 496.337 36.7667 495.617 36.14C494.711 35.34 494.077 34.62 493.717 33.98C493.357 33.3267 493.177 32.5933 493.177 31.78C493.177 30.6733 493.457 29.82 494.017 29.22C494.577 28.6067 495.391 28.3 496.457 28.3C497.511 28.3 498.304 28.6067 498.837 29.22C499.384 29.82 499.657 30.6867 499.657 31.82V32.4H497.577V31.68C497.577 31.2 497.484 30.8533 497.297 30.64C497.111 30.4133 496.837 30.3 496.477 30.3C495.744 30.3 495.377 30.7467 495.377 31.64C495.377 32.1467 495.511 32.62 495.777 33.06C496.057 33.5 496.557 34.0333 497.277 34.66C498.197 35.46 498.831 36.1867 499.177 36.84C499.524 37.4933 499.697 38.26 499.697 39.14C499.697 40.2867 499.411 41.1667 498.837 41.78C498.277 42.3933 497.457 42.7 496.377 42.7ZM500.959 28.5H503.159V42.5H500.959V28.5ZM506.526 30.5H504.226V28.5H511.026V30.5H508.726V42.5H506.526V30.5ZM514.19 36.54L511.53 28.5H513.87L515.37 33.64H515.41L516.91 28.5H519.05L516.39 36.54V42.5H514.19V36.54ZM382.465 61.8C381.825 61.8 381.278 61.58 380.825 61.14C380.385 60.6867 380.165 60.14 380.165 59.5C380.165 58.86 380.385 58.32 380.825 57.88C381.278 57.4267 381.825 57.2 382.465 57.2C383.105 57.2 383.645 57.4267 384.085 57.88C384.538 58.32 384.765 58.86 384.765 59.5C384.765 60.14 384.538 60.6867 384.085 61.14C383.645 61.58 383.105 61.8 382.465 61.8ZM398.283 52.5H400.483V64.5H404.103V66.5H398.283V52.5ZM405.158 52.5H411.158V54.5H407.358V58.2H410.378V60.2H407.358V64.5H411.158V66.5H405.158V52.5ZM414.124 52.5H417.104L419.384 66.5H417.184L416.784 63.72V63.76H414.284L413.884 66.5H411.844L414.124 52.5ZM416.524 61.86L415.544 54.94H415.504L414.544 61.86H416.524ZM420.451 52.5H423.811C424.904 52.5 425.724 52.7933 426.271 53.38C426.818 53.9667 427.091 54.8267 427.091 55.96V63.04C427.091 64.1733 426.818 65.0333 426.271 65.62C425.724 66.2067 424.904 66.5 423.811 66.5H420.451V52.5ZM423.771 64.5C424.131 64.5 424.404 64.3933 424.591 64.18C424.791 63.9667 424.891 63.62 424.891 63.14V55.86C424.891 55.38 424.791 55.0333 424.591 54.82C424.404 54.6067 424.131 54.5 423.771 54.5H422.651V64.5H423.771ZM431.779 52.5H433.979V58.2H436.339V52.5H438.539V66.5H436.339V60.2H433.979V66.5H431.779V52.5ZM441.877 52.5H444.857L447.137 66.5H444.937L444.537 63.72V63.76H442.037L441.637 66.5H439.597L441.877 52.5ZM444.277 61.86L443.297 54.94H443.257L442.297 61.86H444.277ZM448.205 52.5H451.445C452.538 52.5 453.358 52.7933 453.905 53.38C454.451 53.9667 454.725 54.8267 454.725 55.96V57.34C454.725 58.4733 454.451 59.3333 453.905 59.92C453.358 60.5067 452.538 60.8 451.445 60.8H450.405V66.5H448.205V52.5ZM451.445 58.8C451.805 58.8 452.071 58.7 452.245 58.5C452.431 58.3 452.525 57.96 452.525 57.48V55.82C452.525 55.34 452.431 55 452.245 54.8C452.071 54.6 451.805 54.5 451.445 54.5H450.405V58.8H451.445ZM455.92 52.5H459.16C460.253 52.5 461.073 52.7933 461.62 53.38C462.166 53.9667 462.44 54.8267 462.44 55.96V57.34C462.44 58.4733 462.166 59.3333 461.62 59.92C461.073 60.5067 460.253 60.8 459.16 60.8H458.12V66.5H455.92V52.5ZM459.16 58.8C459.52 58.8 459.786 58.7 459.96 58.5C460.146 58.3 460.24 57.96 460.24 57.48V55.82C460.24 55.34 460.146 55 459.96 54.8C459.786 54.6 459.52 54.5 459.16 54.5H458.12V58.8H459.16ZM465.557 60.54L462.897 52.5H465.237L466.737 57.64H466.777L468.277 52.5H470.417L467.757 60.54V66.5H465.557V60.54ZM476.311 52.5H479.291L481.571 66.5H479.371L478.971 63.72V63.76H476.471L476.071 66.5H474.031L476.311 52.5ZM478.711 61.86L477.731 54.94H477.691L476.731 61.86H478.711ZM482.638 52.5H485.398L487.538 60.88H487.578V52.5H489.538V66.5H487.278L484.638 56.28H484.598V66.5H482.638V52.5ZM491.174 52.5H494.534C495.627 52.5 496.447 52.7933 496.994 53.38C497.54 53.9667 497.814 54.8267 497.814 55.96V63.04C497.814 64.1733 497.54 65.0333 496.994 65.62C496.447 66.2067 495.627 66.5 494.534 66.5H491.174V52.5ZM494.494 64.5C494.854 64.5 495.127 64.3933 495.314 64.18C495.514 63.9667 495.614 63.62 495.614 63.14V55.86C495.614 55.38 495.514 55.0333 495.314 54.82C495.127 54.6067 494.854 54.5 494.494 54.5H493.374V64.5H494.494ZM502.502 52.5H504.702V58.2H507.062V52.5H509.262V66.5H507.062V60.2H504.702V66.5H502.502V52.5ZM510.9 52.5H516.9V54.5H513.1V58.2H516.12V60.2H513.1V64.5H516.9V66.5H510.9V52.5ZM519.866 52.5H522.846L525.126 66.5H522.926L522.526 63.72V63.76H520.026L519.626 66.5H517.586L519.866 52.5ZM522.266 61.86L521.286 54.94H521.246L520.286 61.86H522.266ZM526.193 52.5H528.393V64.5H532.013V66.5H526.193V52.5ZM533.226 54.5H530.926V52.5H537.726V54.5H535.426V66.5H533.226V54.5ZM538.791 52.5H540.991V58.2H543.351V52.5H545.551V66.5H543.351V60.2H540.991V66.5H538.791V52.5ZM549.209 60.54L546.549 52.5H548.889L550.389 57.64H550.429L551.929 52.5H554.069L551.409 60.54V66.5H549.209V60.54ZM398.283 76.5H400.483V88.5H404.103V90.5H398.283V76.5ZM405.158 76.5H407.358V90.5H405.158V76.5ZM408.426 76.5H410.646L412.086 87.36H412.126L413.566 76.5H415.586L413.466 90.5H410.546L408.426 76.5ZM416.642 76.5H422.642V78.5H418.842V82.2H421.862V84.2H418.842V88.5H422.642V90.5H416.642V76.5ZM426.807 90.7C425.74 90.7 424.934 90.4 424.387 89.8C423.84 89.1867 423.567 88.3133 423.567 87.18V86.38H425.647V87.34C425.647 88.2467 426.027 88.7 426.787 88.7C427.16 88.7 427.44 88.5933 427.627 88.38C427.827 88.1533 427.927 87.7933 427.927 87.3C427.927 86.7133 427.794 86.2 427.527 85.76C427.26 85.3067 426.767 84.7667 426.047 84.14C425.14 83.34 424.507 82.62 424.147 81.98C423.787 81.3267 423.607 80.5933 423.607 79.78C423.607 78.6733 423.887 77.82 424.447 77.22C425.007 76.6067 425.82 76.3 426.887 76.3C427.94 76.3 428.734 76.6067 429.267 77.22C429.814 77.82 430.087 78.6867 430.087 79.82V80.4H428.007V79.68C428.007 79.2 427.914 78.8533 427.727 78.64C427.54 78.4133 427.267 78.3 426.907 78.3C426.174 78.3 425.807 78.7467 425.807 79.64C425.807 80.1467 425.94 80.62 426.207 81.06C426.487 81.5 426.987 82.0333 427.707 82.66C428.627 83.46 429.26 84.1867 429.607 84.84C429.954 85.4933 430.127 86.26 430.127 87.14C430.127 88.2867 429.84 89.1667 429.267 89.78C428.707 90.3933 427.887 90.7 426.807 90.7ZM382.465 109.8C381.825 109.8 381.278 109.58 380.825 109.14C380.385 108.687 380.165 108.14 380.165 107.5C380.165 106.86 380.385 106.32 380.825 105.88C381.278 105.427 381.825 105.2 382.465 105.2C383.105 105.2 383.645 105.427 384.085 105.88C384.538 106.32 384.765 106.86 384.765 107.5C384.765 108.14 384.538 108.687 384.085 109.14C383.645 109.58 383.105 109.8 382.465 109.8ZM398.283 100.5H400.483V106.2H402.843V100.5H405.043V114.5H402.843V108.2H400.483V114.5H398.283V100.5ZM406.681 100.5H412.681V102.5H408.881V106.2H411.901V108.2H408.881V112.5H412.681V114.5H406.681V100.5ZM413.947 100.5H416.147V112.5H419.767V114.5H413.947V100.5ZM420.822 100.5H424.062C425.155 100.5 425.975 100.793 426.522 101.38C427.069 101.967 427.342 102.827 427.342 103.96V105.34C427.342 106.473 427.069 107.333 426.522 107.92C425.975 108.507 425.155 108.8 424.062 108.8H423.022V114.5H420.822V100.5ZM424.062 106.8C424.422 106.8 424.689 106.7 424.862 106.5C425.049 106.3 425.142 105.96 425.142 105.48V103.82C425.142 103.34 425.049 103 424.862 102.8C424.689 102.6 424.422 102.5 424.062 102.5H423.022V106.8H424.062ZM434.92 114.7C433.84 114.7 433.013 114.393 432.44 113.78C431.867 113.167 431.58 112.3 431.58 111.18V103.82C431.58 102.7 431.867 101.833 432.44 101.22C433.013 100.607 433.84 100.3 434.92 100.3C436 100.3 436.827 100.607 437.4 101.22C437.973 101.833 438.26 102.7 438.26 103.82V111.18C438.26 112.3 437.973 113.167 437.4 113.78C436.827 114.393 436 114.7 434.92 114.7ZM434.92 112.7C435.68 112.7 436.06 112.24 436.06 111.32V103.68C436.06 102.76 435.68 102.3 434.92 102.3C434.16 102.3 433.78 102.76 433.78 103.68V111.32C433.78 112.24 434.16 112.7 434.92 112.7ZM441.39 102.5H439.09V100.5H445.89V102.5H443.59V114.5H441.39V102.5ZM446.955 100.5H449.155V106.2H451.515V100.5H453.715V114.5H451.515V108.2H449.155V114.5H446.955V100.5ZM455.353 100.5H461.353V102.5H457.553V106.2H460.573V108.2H457.553V112.5H461.353V114.5H455.353V100.5ZM462.619 100.5H465.879C467.012 100.5 467.839 100.767 468.359 101.3C468.879 101.82 469.139 102.627 469.139 103.72V104.58C469.139 106.033 468.659 106.953 467.699 107.34V107.38C468.232 107.54 468.605 107.867 468.819 108.36C469.045 108.853 469.159 109.513 469.159 110.34V112.8C469.159 113.2 469.172 113.527 469.199 113.78C469.225 114.02 469.292 114.26 469.399 114.5H467.159C467.079 114.273 467.025 114.06 466.999 113.86C466.972 113.66 466.959 113.3 466.959 112.78V110.22C466.959 109.58 466.852 109.133 466.639 108.88C466.439 108.627 466.085 108.5 465.579 108.5H464.819V114.5H462.619V100.5ZM465.619 106.5C466.059 106.5 466.385 106.387 466.599 106.16C466.825 105.933 466.939 105.553 466.939 105.02V103.94C466.939 103.433 466.845 103.067 466.659 102.84C466.485 102.613 466.205 102.5 465.819 102.5H464.819V106.5H465.619ZM473.545 114.7C472.479 114.7 471.672 114.4 471.125 113.8C470.579 113.187 470.305 112.313 470.305 111.18V110.38H472.385V111.34C472.385 112.247 472.765 112.7 473.525 112.7C473.899 112.7 474.179 112.593 474.365 112.38C474.565 112.153 474.665 111.793 474.665 111.3C474.665 110.713 474.532 110.2 474.265 109.76C473.999 109.307 473.505 108.767 472.785 108.14C471.879 107.34 471.245 106.62 470.885 105.98C470.525 105.327 470.345 104.593 470.345 103.78C470.345 102.673 470.625 101.82 471.185 101.22C471.745 100.607 472.559 100.3 473.625 100.3C474.679 100.3 475.472 100.607 476.005 101.22C476.552 101.82 476.825 102.687 476.825 103.82V104.4H474.745V103.68C474.745 103.2 474.652 102.853 474.465 102.64C474.279 102.413 474.005 102.3 473.645 102.3C472.912 102.3 472.545 102.747 472.545 103.64C472.545 104.147 472.679 104.62 472.945 105.06C473.225 105.5 473.725 106.033 474.445 106.66C475.365 107.46 475.999 108.187 476.345 108.84C476.692 109.493 476.865 110.26 476.865 111.14C476.865 112.287 476.579 113.167 476.005 113.78C475.445 114.393 474.625 114.7 473.545 114.7Z" fill="#1C355E"/>
</svg>
