<svg width="1200" height="89" viewBox="0 0 1200 89" fill="none" xmlns="http://www.w3.org/2000/svg">
<path d="M519.034 20.6024H511.674V14.2024H533.434V20.6024H526.074V59.0024H519.034V20.6024ZM536.843 14.2024H543.883V59.0024H536.843V14.2024ZM549.155 14.2024H559.203L563.683 46.2664H563.811L568.291 14.2024H578.339V59.0024H571.683V25.0824H571.555L566.435 59.0024H560.547L555.427 25.0824H555.299V59.0024H549.155V14.2024ZM583.593 14.2024H602.793V20.6024H590.633V32.4424H600.297V38.8424H590.633V52.6024H602.793V59.0024H583.593V14.2024ZM606.843 14.2024H613.883V52.6024H625.467V59.0024H606.843V14.2024ZM628.843 14.2024H635.883V59.0024H628.843V14.2024ZM641.155 14.2024H649.987L656.835 41.0184H656.963V14.2024H663.235V59.0024H656.003L647.555 26.2984H647.427V59.0024H641.155V14.2024ZM668.468 14.2024H687.668V20.6024H675.508V32.4424H685.172V38.8424H675.508V52.6024H687.668V59.0024H668.468V14.2024Z" fill="#1C355E"/>
<path d="M0 88.0033L1200 88.0035" stroke="#416BA9" stroke-width="2"/>
</svg>
